<svg id="illustration-builder" width="1172" height="1053" viewBox="-10 -30 1242 1113" version="1.1" xmlns="http://www.w3.org/2000/svg" xmlns:xlink="http://www.w3.org/1999/xlink" style="pointer-events: inherit;">
    <g transform="translate(-13,32)">
        <g><svg xmlns="http://www.w3.org/2000/svg" width="1180" height="1000" viewBox="0 0 1180 1000">
                <g id="Symbols--globalStyle1/growth2/bg5" fill="none" fill-rule="evenodd" stroke="none" stroke-width="1">
                    <g id="globalStyle1/growth2/bg5--globalStyle1/growth2/bg5">
                        <g id="Group--globalStyle1/growth2/bg5" transform="translate(13.5 107)">
                            <path id="[color:background]background--globalStyle1/growth2/bg5" fill="#e6eecb" d="M782.615602,96.177267 C760.674857,18.7135218 609.808089,-74.6003922 542.891499,96.177267 C475.974908,266.954926 422.437812,220.037361 298.210039,170.898181 C173.982267,121.759001 -81.4182174,112.263395 26.4526023,472.200163 C134.323422,832.136931 330.746069,801.633553 403.026014,741.553952 C475.30596,681.47435 566.170189,694.037292 645.054786,758.621318 C723.939383,823.205344 1073.32854,822.703135 1134.98227,554.060165 C1196.636,285.417194 1131.36286,89.4631244 1005.64247,141.723724 C879.922073,193.984324 804.556348,173.641012 782.615602,96.177267 Z" opacity="1.00"></path>
                            <polygon id="Rectangle-Copy-3--globalStyle1/growth2/bg5" fill="#FFF" points="292.5 169 299.5 171.435995 299.5 779 292.5 779"></polygon>
                            <polygon id="Rectangle-Copy-4--globalStyle1/growth2/bg5" fill="#FFF" points="860.5 169 866.5 169.956329 866.5 786.972299 860.5 788"></polygon>
                            <polygon id="Rectangle-Copy-5--globalStyle1/growth2/bg5" fill="#FFF" points="574.5 -307.667515 581.5 -309 581.5 833 574.5 831.51413" transform="rotate(90 578 262)"></polygon>
                            <path id="Combined-Shape--globalStyle1/growth2/bg5" fill="#FFF" d="M879.418561,447.037247 C915.848517,447.037247 945.508778,475.738214 946.596596,511.550687 C951.951193,506.512589 959.192793,503.421128 967.163576,503.421128 C981.43878,503.421128 993.375152,513.336896 996.331481,526.592191 C1001.24896,523.063985 1007.29732,520.98332 1013.83646,520.98332 C1023.69268,520.98332 1032.43396,525.710293 1037.87437,532.999713 L622.985174,532.999825 C622.531615,532.443152 622.090583,531.876054 621.662501,531.29895 C621.716185,531.862028 621.757179,532.428867 621.785323,532.999111 L545.286578,532.999703 C546.271956,512.92619 563.019947,496.950847 583.536042,496.950847 C595.389392,496.950847 605.984931,502.283497 613.009412,510.65818 C612.640185,508.299745 612.449686,505.882465 612.449686,503.421128 C612.449686,477.386082 633.76377,456.280507 660.056024,456.280507 C686.348278,456.280507 707.662362,477.386082 707.662362,503.421128 C707.662362,505.473282 707.529937,507.494809 707.273087,509.477787 C711.752403,506.820548 716.994902,505.293091 722.597684,505.293091 C732.237489,505.293091 740.810771,509.814755 746.272471,516.833034 C750.604724,500.61251 765.528394,488.655225 783.272428,488.655225 C795.324167,488.655225 806.074838,494.171263 813.090099,502.792812 C818.298574,471.171583 846.012285,447.037247 879.418561,447.037247 Z M204.874113,518.86899 C212.817789,518.86899 219.25741,525.19558 219.25741,532.999824 L219.25741,532.999824 L170.825989,532.999229 C173.445691,529.517153 177.65455,527.259173 182.400212,527.259173 C185.548997,527.259173 188.461458,528.253233 190.829067,529.939344 C192.252376,523.606452 198.000114,518.86899 204.874113,518.86899 Z M410.331206,297.485915 C432.588179,297.485915 450.63102,315.302957 450.63102,337.281392 C450.63102,339.359258 450.469753,341.39993 450.157107,343.390924 C456.103484,336.321066 465.072882,331.819268 475.107057,331.819268 C492.47449,331.819268 506.652101,345.305602 507.486086,362.251538 L507.486086,362.251538 L442.728203,362.251124 C442.752047,361.769657 442.786793,361.290964 442.83233,360.815257 C442.469749,361.302717 442.096192,361.781721 441.71202,362.251914 L441.71202,362.251914 L274.094885,362.251515 C273.787862,360.482594 273.627914,358.664071 273.627914,356.808658 C273.627914,339.13972 288.132943,324.816215 306.025804,324.816215 C321.046274,324.816215 333.679321,334.910063 337.347655,348.602808 C341.971132,342.678491 349.228341,338.861678 357.388312,338.861678 C362.131063,338.861678 366.568845,340.151068 370.360805,342.393452 C370.143452,340.719733 370.031391,339.013486 370.031391,337.281392 C370.031391,315.302957 388.074233,297.485915 410.331206,297.485915 Z M150.357894,337.281392 C164.323053,337.281392 175.644052,348.460712 175.644052,362.251103 L175.644052,362.251103 L90.500038,362.250709 C95.1054968,356.097378 102.504996,352.107158 110.848272,352.107158 C116.383513,352.107158 121.503352,353.86345 125.666677,356.841833 C128.169372,345.652022 138.273712,337.281392 150.357894,337.281392 Z M830.585682,308.084041 C851.123086,308.084041 867.771941,324.427732 867.771941,344.588697 L867.771941,344.588697 L742.557931,344.587799 C749.330816,335.592073 760.212533,329.75868 772.482152,329.75868 C780.622754,329.75868 788.152401,332.326545 794.273911,336.682539 C797.95367,320.322525 812.813765,308.084041 830.585682,308.084041 Z M965.997629,212.700908 C985.278397,212.700908 1001.40015,226.123566 1005.3925,244.066611 C1012.03459,239.289212 1020.20324,236.473093 1029.03466,236.473093 C1042.34622,236.473093 1054.152,242.871145 1061.49994,252.737605 L925.65393,252.738272 C925.65393,230.626246 943.716419,212.700908 965.997629,212.700908 Z M623.041953,155 C630.985629,155 637.42525,161.32659 637.42525,169.130835 L637.42525,169.130835 L588.993829,169.13024 C591.61353,165.648164 595.82239,163.390183 600.568051,163.390183 C603.716836,163.390183 606.629298,164.384243 608.996907,166.070355 C610.420216,159.737462 616.167953,155 623.041953,155 Z" opacity=".553"></path>
                        </g>
                    </g>
                </g>
            </svg></g>
    </g>
    <g transform="translate(-41,369)">
        <g><svg xmlns="http://www.w3.org/2000/svg" width="1182" height="609" viewBox="0 0 1182 609">
                <g id="Symbols--globalStyle1/bgelements/growth2/1" fill="none" fill-rule="evenodd" stroke="none" stroke-width="1">
                    <g id="globalStyle1/bgelements/growth2/1--globalStyle1/bgelements/growth2/1">
                        <path id="shadow--globalStyle1/bgelements/growth2/1" fill="#000" fill-opacity=".04" d="M95.9225069,570.990717 C142.735099,586.998969 168.982909,592.335052 174.665937,586.998969 C183.190478,578.994843 138.470687,558.374807 144.707968,551.076134 C150.94525,543.777461 199.460865,577.425885 215.389448,557.678349 C231.318031,537.930812 180.990597,535.75406 190.998003,526.301765 C195.162137,522.368615 223.274804,519.825284 238.429097,509.262961 C259.694177,494.441509 268.119716,470.276394 260.178629,460.834724 C252.850988,452.122419 231.667717,451.329714 215.389448,460.834724 C201.455024,468.971145 192.150366,487.511843 186.631649,483.136796 C174.665937,473.650795 178.364102,448.018652 166.138825,460.834724 C153.913548,473.650795 142.962968,521.678415 134.083773,509.262961 C125.204577,496.847507 127.039525,478.87067 113.333954,494.066816 C104.196906,504.197579 95.130104,525.401424 86.1335472,557.678349 L95.9225069,570.990717 Z" transform="matrix(-1 0 0 1 349.254 0)"></path>
                        <path id="shadow---globalStyle1/bgelements/growth2/1" fill="#000" fill-opacity=".04" d="M953.256906,569.294634 C1000.0695,585.302885 1026.31731,590.638969 1032.00034,585.302885 C1040.52488,577.29876 995.805086,556.678723 1002.04237,549.38005 C1008.27965,542.081377 1056.79526,575.729802 1072.72385,555.982266 C1088.65243,536.234729 1038.325,534.057977 1048.3324,524.605681 C1052.49654,520.672531 1080.6092,518.129201 1095.7635,507.566878 C1117.02858,492.745426 1125.45412,468.580311 1117.51303,459.138641 C1110.18539,450.426336 1089.00212,449.633631 1072.72385,459.138641 C1058.78942,467.275061 1049.48477,485.81576 1043.96605,481.440713 C1032.00034,471.954712 1035.6985,446.322569 1023.47322,459.138641 C1011.24795,471.954712 1000.29737,519.982332 991.418172,507.566878 C982.538977,495.151424 984.373925,477.174587 970.668353,492.370732 C961.531306,502.501496 952.464503,523.70534 943.467947,555.982266 L953.256906,569.294634 Z"></path>
                        <path id="shadow--globalStyle1/bgelements/growth2/1" fill="#000" fill-opacity=".08" d="M94.7305582,537.157688 C150.905669,556.36759 182.403041,562.77089 189.222674,556.36759 C199.452124,546.762639 145.788374,522.018595 153.273112,513.260188 C160.757849,504.50178 218.976588,544.87989 238.090888,521.182846 C257.205187,497.485802 196.812266,494.8737 208.821153,483.530945 C213.818114,478.811165 247.553315,475.759168 265.738467,463.084381 C291.256562,445.298639 301.367209,416.3005 291.837905,404.970496 C283.044736,394.51573 257.62481,393.564484 238.090888,404.970496 C221.369578,414.734201 210.203989,436.983039 203.581528,431.732982 C189.222674,420.349782 193.660473,389.59121 178.99014,404.970496 C164.319807,420.349782 151.179112,477.982926 140.524077,463.084381 C129.869043,448.185836 132.070981,426.613631 115.624295,444.849006 C104.659837,457.005923 93.7796748,482.450536 82.9838066,521.182846 L94.7305582,537.157688 Z" transform="scale(-1 1) rotate(-33 0 1116.417)"></path>
                        <path id="shadow---globalStyle1/bgelements/growth2/1" fill="#000" fill-opacity=".08" d="M916.260117,529.157688 C972.435228,548.36759 1003.9326,554.77089 1010.75223,548.36759 C1020.98168,538.762639 967.317933,514.018595 974.80267,505.260188 C982.287408,496.50178 1040.50615,536.87989 1059.62045,513.182846 C1078.73475,489.485802 1018.34182,486.8737 1030.35071,475.530945 C1035.34767,470.811165 1069.08287,467.759168 1087.26803,455.084381 C1112.78612,437.298639 1122.89677,408.3005 1113.36746,396.970496 C1104.57429,386.51573 1079.15437,385.564484 1059.62045,396.970496 C1042.89914,406.734201 1031.73355,428.983039 1025.11109,423.732982 C1010.75223,412.349782 1015.19003,381.59121 1000.5197,396.970496 C985.849366,412.349782 972.708671,469.982926 962.053636,455.084381 C951.398602,440.185836 953.600539,418.613631 937.153854,436.849006 C926.189396,449.005923 915.309234,474.450536 904.513365,513.182846 L916.260117,529.157688 Z" transform="rotate(-33 1010.706 469.769)"></path>
                        <path id="[color:objects]progress--globalStyle1/bgelements/growth2/1" fill="#b5cee1" fill-rule="nonzero" d="M237.722306,580 L237.722306,387 L452.722306,387 L452.722306,308 L715.722306,308 L715.722306,57 L905.722306,57 L905.722306,56 L968.722306,56 L968.722306,580 L237.722306,580 Z" opacity="1.00"></path>
                        <path id="Combined-Shape--globalStyle1/bgelements/growth2/1" fill="#FFF" fill-rule="nonzero" d="M635.722306,308 L635.722306,580 L451.722306,580 L451.722306,308 L635.722306,308 Z M385.722306,387 L385.722306,580 L237.722306,580 L237.722306,387 L385.722306,387 Z M908.722306,57 L908.722306,580 L715.722306,580 L715.722306,57 L908.722306,57 Z" opacity=".739"></path>
                    </g>
                </g>
            </svg></g>
    </g>
    <g transform="translate(725,103)">
        <g transform="translate(70,90)">
            <g><svg xmlns="http://www.w3.org/2000/svg" width="120" height="150" viewBox="0 0 120 150">
                    <g id="Symbols--globalStyle1/sittingpeople/womansitting/head/4" fill="none" fill-rule="evenodd" stroke="none" stroke-width="1">
                        <g id="globalStyle1/sittingpeople/womansitting/head/4--globalStyle1/sittingpeople/womansitting/head/4">
                            <g id="Group--globalStyle1/sittingpeople/womansitting/head/4" transform="translate(35.389 24.001)">
                                <polygon id="[skin]neck--globalStyle1/sittingpeople/womansitting/head/4" fill="#ffbcba" points="5.47189499 66.9530613 40.1342975 18.8968343 48.8867657 27.7505175 31.2329389 72.4287402" transform="rotate(-12 27.18 45.663)" opacity="1.00"></polygon>
                                <polygon id="shadow--globalStyle1/sittingpeople/womansitting/head/4" fill="#000" fill-opacity=".04" points="5.47189499 66.9530613 40.1342975 18.8968343 48.8867657 27.7505175 31.2329389 72.4287402" transform="rotate(-12 27.18 45.663)"></polygon>
                                <path id="[skin]face--globalStyle1/sittingpeople/womansitting/head/4" fill="#ffbcba" d="M44.0822231,34.223105 C49.5732231,35.120105 55.2682231,28.204105 56.8022231,18.776105 C58.3362231,9.34710502 55.1282231,0.976105019 49.6382231,0.0781050191 C44.1472231,-0.817894981 38.4522231,6.09810502 36.9182231,15.527105 C35.3842231,24.955105 38.5912231,33.327105 44.0822231,34.223105" opacity="1.00"></path>
                                <path id="smile--globalStyle1/sittingpeople/womansitting/head/4" fill="#FFF" d="M51.4386231,29.503305 C52.0826231,29.679305 53.5196231,29.602305 53.9466231,28.032305 L50.0226231,26.959305 C49.6276231,28.412305 50.7946231,29.327305 51.4386231,29.503305"></path>
                            </g>
                            <path id="[hair]hair--globalStyle1/sittingpeople/womansitting/head/4" fill="#ffdd38" d="M69.6021723,60.1796335 C64.1511723,64.8706335 54.6632489,61.1286911 51.6112489,57.8356911 C43.6602489,49.2556911 35.8699231,51.0545829 43.0969231,48.0845829 C53.4679231,43.8235829 56.2669231,32.4915829 60.4149231,26.0045829 C66.9639231,15.7615829 76.1359231,9.47958287 92.7379231,23.0545829 C96.1921807,25.8795469 97.1626347,33.1004907 92.2118905,34.6636099 C90.6643716,35.1522146 86.0960876,33.0613847 83.7272746,33.4266968 C83.3282535,33.6162726 83.7429231,33.3525829 83.2439231,34.0135829 C82.3969231,35.1365829 89.1201723,43.3796335 69.6021723,60.1796335 Z" opacity="1.00"></path>
                        </g>
                    </g>
                </svg></g>
        </g>
        <g transform="translate(85,247)">
            <g><svg xmlns="http://www.w3.org/2000/svg" xmlns:xlink="http://www.w3.org/1999/xlink" width="251" height="180" viewBox="0 0 251 180">
                    <defs>
                        <path id="path-1--globalStyle1/sittingpeople/womansitting/bottom/2" d="M165.992373,25.945352 C178.126919,25.9242876 187.978128,35.7597017 187.999964,47.9146047 C188.001661,48.8620258 187.943546,49.7955731 187.829188,50.7116613 L183.178733,125.994253 L134.971374,126 L141.356963,71.2192434 C95.8514268,73.3766057 55.613511,74.428915 52.1256455,74.1880452 C43.5720978,73.5984031 35.452251,67.3238295 31.6935089,56.6815367 C28.5623712,47.8173654 29.7521806,37.5026516 35.4373354,30.230399 C43.8574216,19.4588729 165.485626,25.9183906 165.992373,25.945352 Z"></path>
                        <path id="path-3--globalStyle1/sittingpeople/womansitting/bottom/2" d="M89.4703356,27.4080846 C117.821775,29.1195012 142.130691,29.6194065 154.568927,29.7646851 C155.979207,29.477597 157.440434,29.3257666 158.936819,29.3230799 C169.134351,29.3057907 177.720759,36.2171408 180.220302,45.6075809 L180.28356,45.8552523 L223,125.906088 L168.866871,126 L146.653806,74.360696 C94.8327469,76.5698782 36.4068094,76.0536418 32.6417427,75.7956807 C24.0823829,75.2070127 15.9581086,68.9549917 12.1973169,58.3509502 C9.06561978,49.5186392 10.2434501,32.3900028 15.931705,25.1438887 C24.3739705,14.389817 56.4164666,25.4107362 89.4703356,27.4080846 Z"></path>
                    </defs>
                    <g id="Symbols--globalStyle1/sittingpeople/womansitting/bottom/2" fill="none" fill-rule="evenodd" stroke="none" stroke-width="1">
                        <g id="globalStyle1/sittingpeople/womansitting/bottom/2--globalStyle1/sittingpeople/womansitting/bottom/2">
                            <path id="[skin]skin--globalStyle1/sittingpeople/womansitting/bottom/2" fill="#ffbcba" d="M178,50.4232907 L161.130618,171 C156.615281,170.339113 153,169.821245 153,169.821245 C153,169.821245 157.728477,68.5186781 158.062089,50 C158.062089,50 162.622602,50 178,50.4232907" opacity="1.00"></path>
                            <path id="shadow--globalStyle1/sittingpeople/womansitting/bottom/2" fill="#000" fill-opacity=".04" d="M178,50.4232907 L161.130618,171 C156.615281,170.339113 153,169.821245 153,169.821245 C153,169.821245 157.728477,68.5186781 158.062089,50 C158.062089,50 162.622602,50 178,50.4232907"></path>
                            <path id="shape--globalStyle1/sittingpeople/womansitting/bottom/2" fill="#C9C8C8" d="M152,160 L152.524999,178 L183,177.979391 C182.910033,176.102792 182.731237,175.03912 179.105213,174.968132 C173.665038,174.860505 161.185776,175.816551 161.182359,170.595509 C161.18122,169.481458 160.923846,172.156097 163.764079,160 L152,160 Z"></path>
                            <path id="shadow--globalStyle1/sittingpeople/womansitting/bottom/2" fill="#000" fill-opacity=".04" d="M152,160 L152.524999,178 L183,177.979391 C182.910033,176.102792 182.731237,175.03912 179.105213,174.968132 C173.665038,174.860505 161.185776,175.816551 161.182359,170.595509 C161.18122,169.481458 160.923846,172.156097 163.764079,160 L152,160 Z"></path>
                            <path id="[clothes]clothes--globalStyle1/sittingpeople/womansitting/bottom/2" fill="#294b67" d="M152,180 L183,180 L183,178.011866 C172.297881,177.996045 172.29904,177.996045 152,178.011866 L152,180 Z" opacity="1.00"></path>
                            <path id="[skin]skin--globalStyle1/sittingpeople/womansitting/bottom/2" fill="#ffbcba" d="M217,168.158568 C213.220618,169.821817 210.593642,171 210.593642,171 C210.593642,171 154.595748,75.4511163 149,56.8829588 C149,56.8829588 153.095773,55.1277541 168.741004,46 L217,168.158568 Z" opacity="1.00"></path>
                            <path id="shape--globalStyle1/sittingpeople/womansitting/bottom/2" fill="#C9C8C8" d="M202,161 L212.901242,178 L244,177.980497 C243.90935,176.100148 243.726888,175.033203 240.025347,174.96322 C234.473616,174.855379 223.256261,174.576596 219.512881,170.870968 C217.190846,168.574167 216.94214,167.845661 214.928083,161.009178 L202,161 Z"></path>
                            <path id="[clothes]clothes--globalStyle1/sittingpeople/womansitting/bottom/2" fill="#294b67" d="M213,180 L244,180 L244,178.007048 C244,178.007048 233.297881,177.991189 213,178.007048 L213,180 Z" opacity="1.00"></path>
                            <mask id="mask-2--globalStyle1/sittingpeople/womansitting/bottom/2" fill="#fff">
                                <use xlink:href="#path-1--globalStyle1/sittingpeople/womansitting/bottom/2"></use>
                            </mask>
                            <use id="[clothes]clothes--globalStyle1/sittingpeople/womansitting/bottom/2" fill="#294b67" xlink:href="#path-1--globalStyle1/sittingpeople/womansitting/bottom/2" opacity="1.00"></use>
                            <path id="Stroke-19--globalStyle1/sittingpeople/womansitting/bottom/2" fill="#5CFDD8" fill-rule="nonzero" d="M136.655845,112 L178.346448,111.947194 C178.708027,111.946736 179.000632,111.734329 179,111.472768 C178.999366,111.211208 178.705735,110.999543 178.344155,111 L136.653552,111.052806 C136.291973,111.053264 135.999368,111.265671 136,111.527232 C136.000634,111.788792 136.294265,112.000457 136.655845,112 Z" mask="url(#mask-2--globalStyle1/sittingpeople/womansitting/bottom/2)"></path>
                            <path id="shadow--globalStyle1/sittingpeople/womansitting/bottom/2" fill="#000" fill-opacity=".04" d="M165.992373,25.945352 C178.126919,25.9242876 187.978128,35.7597017 187.999964,47.9146047 C188.001661,48.8620258 187.943546,49.7955731 187.829188,50.7116613 L183.178733,125.994253 L134.971374,126 L141.356963,71.2192434 C95.8514268,73.3766057 55.613511,74.428915 52.1256455,74.1880452 C43.5720978,73.5984031 35.452251,67.3238295 31.6935089,56.6815367 C28.5623712,47.8173654 29.7521806,37.5026516 35.4373354,30.230399 C43.8574216,19.4588729 165.485626,25.9183906 165.992373,25.945352 Z"></path>
                            <mask id="mask-4--globalStyle1/sittingpeople/womansitting/bottom/2" fill="#fff">
                                <use xlink:href="#path-3--globalStyle1/sittingpeople/womansitting/bottom/2"></use>
                            </mask>
                            <use id="[clothes]clothes--globalStyle1/sittingpeople/womansitting/bottom/2" fill="#294b67" xlink:href="#path-3--globalStyle1/sittingpeople/womansitting/bottom/2" opacity="1.00"></use>
                            <polygon id="Stroke-28--globalStyle1/sittingpeople/womansitting/bottom/2" fill="#5CFDD8" fill-rule="nonzero" points="162.002285 112 216 111.933337 215.997715 111 162 111.066663" mask="url(#mask-4--globalStyle1/sittingpeople/womansitting/bottom/2)"></polygon>
                        </g>
                    </g>
                </svg></g>
        </g>
        <g transform="translate(84,154)">
            <g><svg xmlns="http://www.w3.org/2000/svg" xmlns:xlink="http://www.w3.org/1999/xlink" width="193" height="178" viewBox="0 0 193 178">
                    <defs>
                        <polygon id="path-1--globalStyle1/sittingpeople/womansitting/top/2" points="0.0567503145 0.2569 44.0910503 0.2569 44.0910503 53.5029 0.0567503145 53.5029"></polygon>
                    </defs>
                    <g id="Symbols--globalStyle1/sittingpeople/womansitting/top/2" fill="none" fill-rule="evenodd" stroke="none" stroke-width="1">
                        <g id="globalStyle1/sittingpeople/womansitting/top/2--globalStyle1/sittingpeople/womansitting/top/2">
                            <g id="mac--globalStyle1/sittingpeople/womansitting/top/2" transform="translate(77 120)">
                                <polygon id="Fill-21--globalStyle1/sittingpeople/womansitting/top/2" fill="#888889" points="1.91846539e-13 15.7533 0.003 17.5473 47.439 19.8393 47.439 18.1803"></polygon>
                                <polygon id="Fill-23--globalStyle1/sittingpeople/womansitting/top/2" fill="#C7C7C9" points="47.439 18.18 1.70530257e-13 15.753 36.464 -1.77635684e-15 72.501 1.849"></polygon>
                                <polygon id="Fill-25--globalStyle1/sittingpeople/womansitting/top/2" fill="#B4B4B5" points="48.2334 16.6087 24.2284 15.4637 51.0234 1.9367 70.0344 2.9097"></polygon>
                                <polyline id="Fill-27--globalStyle1/sittingpeople/womansitting/top/2" fill="#939396" points="47.4361 18.18 47.4391 19.839 72.5031 3.29 72.5011 1.849"></polyline>
                                <polygon id="Fill-29--globalStyle1/sittingpeople/womansitting/top/2" fill="#B4B4B5" points="29.4444 9.5404 19.9644 9.0714 28.5564 5.3424 37.3794 5.7794"></polygon>
                            </g>
                            <path id="[skin]hand--globalStyle1/sittingpeople/womansitting/top/2" fill="#ffbcba" d="M109.145636,112.000007 C109.622951,111.99915 110.081563,112.081138 110.508624,112.232776 L110.526227,112.184346 L117.544826,113.427844 C122.0031,114.640435 124.428144,115.804605 126.034485,116.307361 C128.967586,117.225304 135.230614,120.080095 135.842887,120.727085 C136.455161,121.373044 136.050319,121.854166 134.610323,121.243234 C133.887821,120.937253 133.610243,120.778597 133.173334,120.641575 C132.842647,120.537521 131.130084,119.864775 130.691171,119.739086 C128.771178,119.188939 127.227968,118.646003 127.410347,118.838657 C127.592726,119.031312 130.3204,119.684483 132.366656,120.539581 C132.850663,120.743569 134.023102,121.574971 134.315711,121.795442 C135.558295,122.730899 136.4261,123.553029 136.919126,124.261834 C137.109522,124.533817 136.952195,124.832586 136.568396,124.927368 C136.486226,124.947973 136.396038,124.957245 136.304848,124.955184 C135.668525,124.945912 134.534165,123.707565 133.484983,123.072938 C133.135255,122.861739 132.384694,122.38886 131.993881,122.207538 C129.479651,121.039247 125.755906,120.155302 126.364171,120.44686 C126.973438,120.737387 129.243159,121.69963 130.539857,122.191054 C131.58002,122.585635 132.048996,122.731929 133.821683,124.265955 C134.885897,125.185958 136.568396,127.075415 136.579419,127.305159 C136.58944,127.532841 136.175579,127.530781 136.133492,127.521509 C135.352868,127.332975 134.845813,127.152683 134.611326,126.981664 C132.913795,125.738166 132.009914,124.314376 129.779275,123.616904 C127.547633,122.919433 124.851023,121.821198 125.091524,122.054032 C125.247849,122.205477 126.855192,123.027608 128.159906,123.679749 C130.083908,124.643022 132.196302,125.991604 132.817594,126.514966 C133.24348,126.873489 133.624272,127.215528 133.961975,127.543144 C134.112288,127.689438 134.073206,127.874881 133.873791,127.95936 C133.801641,127.990267 133.71446,128.00263 133.62327,127.999539 C132.992959,127.964511 132.524986,127.843973 132.220352,127.635865 C131.225282,126.956938 131.022861,126.764283 129.482658,126.048267 C129.215101,125.923609 126.997488,125.053057 126.555569,124.842888 C123.447103,123.362435 120.039014,122.645389 119.866656,122.797864 C118.396598,124.095965 120.294546,124.164991 121.639343,125.825736 C123.686601,126.021481 125.097536,126.517026 126.636738,127.578172 C126.70989,127.629684 126.688846,127.941846 126.143712,127.902697 L126.143712,127.902697 L119.30649,127.229951 L112.293904,121.592485 L107.615152,120.281178 L107.629556,120.243512 C106.091969,119.620115 105.003076,118.080403 105.000006,116.277564 C104.996005,113.920378 106.851865,112.005164 109.145636,112.000007 Z" opacity="1.00"></path>
                            <path id="Combined-Shape--globalStyle1/sittingpeople/womansitting/top/2" fill="#1E3142" d="M50.1037912,23.3806327 C51.6958751,8.16973625 73.462022,10.8226947 72.9719962,23.9090186 C72.3739647,39.8708847 68.9557846,86.0891098 68.432757,88.5285081 C68.4047277,88.6594573 68.3764442,88.7893767 68.3479102,88.9182727 C76.7974502,92.818893 91.4535393,100.241526 111,111.028222 L111,111.028222 L106.957787,122 C77.3917292,115.568 59.080555,108.905981 51.5537736,102.496975 C50.3209862,101.742851 49.2394876,100.685163 48.4255027,99.3522977 C46.4474766,96.1133648 46.5899431,92.1331101 48.4689538,89.1121765 C46.9589237,70.4955945 49.4353244,33.5726915 50.1037912,23.3806327 Z"></path>
                            <path id="shadow--globalStyle1/sittingpeople/womansitting/top/2" fill="#000" fill-opacity=".08" d="M50.1037912,23.3806327 C51.6958751,8.16973625 73.462022,10.8226947 72.9719962,23.9090186 C72.3739647,39.8708847 68.9557846,86.0891098 68.432757,88.5285081 C68.4047277,88.6594573 68.3764442,88.7893767 68.3479102,88.9182727 C76.7974502,92.818893 91.4535393,100.241526 111,111.028222 L111,111.028222 L106.957787,122 C77.3917292,115.568 59.080555,108.905981 51.5537736,102.496975 C50.3209862,101.742851 49.2394876,100.685163 48.4255027,99.3522977 C46.4474766,96.1133648 46.5899431,92.1331101 48.4689538,89.1121765 C46.9589237,70.4955945 49.4353244,33.5726915 50.1037912,23.3806327 Z"></path>
                            <path id="shadow--globalStyle1/sittingpeople/womansitting/top/2" fill="#000" fill-opacity=".04" d="M110.536315,112 L107.580436,120.180597 L112.314076,121.5178 L119.366666,127.220976 L126.24289,127.901563 C126.791134,127.941168 126.812298,127.625367 126.738728,127.573255 C125.190746,126.499741 123.771763,125.99842 121.712826,125.800393 C120.360357,124.120291 118.451582,124.05046 119.930026,122.737229 C120.103368,122.582976 123.530898,123.30838 126.657096,124.806089 C127.101537,125.018708 129.3318,125.899406 129.600882,126.025518 C131.149872,126.74988 131.353448,126.94478 132.354194,127.631621 C132.660566,127.842155 133.131209,127.964098 133.765115,127.999534 C133.856825,128.002661 133.944504,127.990154 134.017065,127.958886 C134.217618,127.873422 134.256922,127.685818 134.105752,127.537819 C133.766123,127.206384 133.383159,126.860358 132.954843,126.497656 C132.330007,125.968195 130.205563,124.603893 128.270585,123.629392 C126.958429,122.96965 125.341916,122.137937 125.184699,121.984726 C124.942827,121.749179 127.654819,122.860214 129.899191,123.565815 C132.142556,124.271416 133.051592,125.711802 134.758807,126.969794 C134.994632,127.142807 135.504579,127.3252 136.289656,127.515931 C136.331984,127.525312 136.748205,127.527396 136.738127,127.29706 C136.727042,127.064638 135.034944,125.153157 133.96466,124.222431 C132.18186,122.670525 131.710209,122.522526 130.664112,122.123345 C129.360018,121.626194 127.077349,120.652735 126.464606,120.358821 C125.852871,120.063865 129.597859,120.958113 132.126431,122.140021 C132.519473,122.323457 133.274316,122.801848 133.626039,123.015509 C134.681206,123.657533 135.822037,124.910314 136.46199,124.919694 C136.5537,124.921779 136.644402,124.912398 136.727042,124.891553 C137.113029,124.795667 137.271254,124.493415 137.079772,124.218262 C136.583934,123.501196 135.711179,122.669483 134.461506,121.723122 C134.167228,121.500082 132.988101,120.658988 132.501333,120.452623 C130.443404,119.587558 127.70017,118.926774 127.51675,118.731874 C127.333331,118.536973 128.885344,119.086238 130.81629,119.642797 C131.257707,119.769952 132.980038,120.450539 133.312613,120.555806 C133.752014,120.694425 134.031175,120.854931 134.757799,121.164478 C136.206009,121.782531 136.61316,121.295801 135.997394,120.642312 C135.381628,119.987781 129.082873,117.099715 126.13304,116.171073 C124.517535,115.662456 122.078657,114.484717 117.594952,113.257992 L110.536315,112 Z"></path>
                            <g id="mac2--globalStyle1/sittingpeople/womansitting/top/2" transform="translate(124 85)">
                                <mask id="mask-2--globalStyle1/sittingpeople/womansitting/top/2" fill="#fff">
                                    <use xlink:href="#path-1--globalStyle1/sittingpeople/womansitting/top/2"></use>
                                </mask>
                                <polygon id="Fill-37--globalStyle1/sittingpeople/womansitting/top/2" fill="#9F9FA0" points="0.0567503145 53.5029 25.1187503 37.1719 44.0917503 0.2569 18.7467503 16.5249" mask="url(#mask-2--globalStyle1/sittingpeople/womansitting/top/2)"></polygon>
                                <path id="Fill-40--globalStyle1/sittingpeople/womansitting/top/2" fill="#BEBEBF" d="M24.7564503,28.4834 C23.8184503,30.4434 22.7374503,31.7144 21.9234503,31.3254 C21.1104503,30.9354 21.2114503,29.0314 22.1494503,27.0714 C23.0884503,25.1124 24.5084503,23.8384 25.3214503,24.2284 C26.1354503,24.6184 25.6944503,26.5234 24.7564503,28.4834" mask="url(#mask-2--globalStyle1/sittingpeople/womansitting/top/2)"></path>
                            </g>
                            <polygon id="Fill-5--globalStyle1/sittingpeople/womansitting/top/2" fill="#E8E8E8" points="63.7152033 6.58388981 45.4935065 0 41 10.4673226 61.5804196 31 65 17.5381182 62.1948052 11.9189653"></polygon>
                            <path id="[clothes]bluse--globalStyle1/sittingpeople/womansitting/top/2" fill="#b5c7fc" d="M40.3180265,9.99984774 C3.42170947,11.6098274 9.35073859,40.9140414 9.35073859,73.7458925 C9.35073859,82.5980194 7.71389623,118.343875 11.9930124,123.613308 C27.8134759,143.093393 59.4996472,136.270358 70.1562149,125.75852 C74.2593806,121.710346 73.6752249,121.196816 73.5244102,85.5840982 C73.4389485,65.3011856 77.926189,52.3248064 75.0184813,43.0972924 C72.9201459,36.4414299 71.3462369,13.3345134 62.3154519,11.9831201 C62.0208605,11.9390747 64.4208253,24.4194305 62.3154519,24.4194305 C59.453994,24.0750755 41.5627506,9.94511099 40.3180265,9.99984774 Z" opacity="1.00"></path>
                            <path id="[skin]hand--globalStyle1/sittingpeople/womansitting/top/2" fill="#ffbcba" d="M76.4787535,126 L85.1329857,131.04946 L94.0072407,130.843296 L99.8160423,133.461877 C100.272937,133.682399 100.154996,133.953181 100.073727,133.961387 C98.3710273,134.128574 97.0191752,133.883434 95.2817875,133.093655 C93.4760144,133.848561 91.9150414,133.024934 92.5384395,134.786039 C92.6117805,134.993228 95.6722785,135.981991 98.8229661,136.19636 C99.2709406,136.228156 101.437472,136.534836 101.707049,136.556376 C103.261085,136.676381 103.506876,136.611763 104.604017,136.509194 C104.940989,136.478424 105.371124,136.595352 105.894421,136.861005 C105.969744,136.898956 106.034166,136.951266 106.078765,137.00973 C106.203643,137.171788 106.154088,137.34513 105.969744,137.395388 C105.555467,137.512317 105.099564,137.618988 104.601044,137.719506 C103.87259,137.864128 101.583163,138.003621 99.6138591,137.909258 C98.2788556,137.845665 96.6247198,137.781047 96.4334387,137.834383 C96.1371016,137.916438 98.79026,138.256966 100.893361,138.714422 C102.995472,139.172905 104.341377,138.409793 106.251215,138.164654 C106.513855,138.130806 107.001473,138.216964 107.713079,138.424153 C107.75074,138.435435 108.086721,138.626213 107.978692,138.810837 C107.870663,138.997512 105.69422,139.784215 104.436522,140.054996 C102.340358,140.506299 101.899322,140.409884 100.888406,140.252954 C99.6287255,140.059099 97.3799334,139.803703 96.7634729,139.762675 C96.1470125,139.720622 99.5335805,140.718616 102.068799,140.916574 C102.463254,140.947344 103.273969,140.902214 103.648602,140.889906 C104.76953,140.85093 106.221482,140.348343 106.738833,140.635535 C106.813165,140.677588 106.881551,140.726821 106.940025,140.782208 C107.208612,141.039656 107.205639,141.360696 106.934079,141.499164 C106.229411,141.858155 105.172905,142.138167 103.76456,142.339202 C103.432544,142.386384 102.126282,142.532031 101.647584,142.474593 C99.6257522,142.234582 97.1410797,141.510447 96.9111459,141.585322 C96.6802211,141.660197 98.1599243,141.926876 99.9488488,142.362793 C100.35718,142.462285 102.030146,142.698193 102.342341,142.766914 C102.754636,142.856149 103.048,142.853072 103.762578,142.934101 C105.189754,143.09616 105.307694,143.683878 104.533649,143.936198 C103.759605,144.188517 97.4681407,143.651056 94.7039798,143.050004 C93.1895882,142.720758 90.1548586,142.340228 86.4630337,140.960678 L72,134.674239 L76.4787535,126 Z" opacity="1.00"></path>
                            <path id="Combined-Shape--globalStyle1/sittingpeople/womansitting/top/2" fill="#1E3142" d="M15.4493362,26.3776701 C18.1113963,14.4656376 33.828215,13.4295488 38.1985812,25.998103 C41.9064531,36.6589632 45.1525158,79.2137674 45.5459612,94.393034 C49.1086471,97.6022337 54.365581,100.174033 81,127.794525 L81,127.794525 L76.1084898,138 C49.8195363,123.156425 36.4909708,113.974787 30.7417086,107.148021 C28.5691363,105.614763 27.0361071,103.22848 26.663439,100.449722 C20.6573006,84.8294789 13.0655387,37.0485823 15.4493362,26.3776701 Z"></path>
                        </g>
                    </g>
                </svg></g>
        </g>
    </g>
    <g transform="translate(186,527)">
        <g transform="translate(223,0) scale(-1, 1)">
            <g><svg xmlns="http://www.w3.org/2000/svg" width="223" height="228" viewBox="0 0 223 228">
                    <g id="Symbols--globalStyle1/animals/dogvscat/dino" fill="none" fill-rule="evenodd" stroke="none" stroke-width="1">
                        <g id="globalStyle1/animals/dogvscat/dino--globalStyle1/animals/dogvscat/dino">
                            <g id="Group-107--globalStyle1/animals/dogvscat/dino" transform="translate(0 14)">
                                <path id="[color]color--globalStyle1/animals/dogvscat/dino" fill="#233a48" fill-rule="nonzero" d="M207.472459,195.137162 C207.919695,195.077651 209.783779,197.205028 209.882363,197.710572 C209.995375,198.285848 209.86974,200.651269 209.86974,200.651269 L204.91047,200.910954 C204.91047,200.910954 204.612313,198.617067 204.646577,198.403668 C204.742156,197.792926 207.025824,195.196072 207.472459,195.137162 Z M213.583602,195.33932 C213.974933,195.293034 215.576928,197.178157 215.656877,197.621185 C215.747046,198.125528 215.606383,200.192191 215.606383,200.192191 L211.266871,200.353292 C211.266871,200.353292 211.036641,198.343736 211.069102,198.157989 C211.161074,197.624792 213.191669,195.385006 213.583602,195.33932 Z M218.998222,195.573939 C219.342065,195.514428 220.850284,197.103798 220.941655,197.492124 C221.046251,197.933349 221.021003,199.767978 221.021003,199.767978 L217.191245,200.119635 L217.179798,200.051784 C217.125084,199.72623 216.893547,198.334015 216.91052,198.187624 C216.966425,197.711534 218.65438,195.63345 218.998222,195.573939 Z" opacity="1.00"></path>
                                <path id="shadow--globalStyle1/animals/dogvscat/dino" fill="#000" fill-opacity=".2" d="M207.472459,195.137162 C207.919695,195.077651 209.783779,197.205028 209.882363,197.710572 C209.995375,198.285848 209.86974,200.651269 209.86974,200.651269 L204.91047,200.910954 C204.91047,200.910954 204.612313,198.617067 204.646577,198.403668 C204.742156,197.792926 207.025824,195.196072 207.472459,195.137162 Z M213.583602,195.33932 C213.974933,195.293034 215.576928,197.178157 215.656877,197.621185 C215.747046,198.125528 215.606383,200.192191 215.606383,200.192191 L211.266871,200.353292 C211.266871,200.353292 211.036641,198.343736 211.069102,198.157989 C211.161074,197.624792 213.191669,195.385006 213.583602,195.33932 Z M218.998222,195.573939 C219.342065,195.514428 220.850284,197.103798 220.941655,197.492124 C221.046251,197.933349 221.021003,199.767978 221.021003,199.767978 L217.191245,200.119635 L217.179798,200.051784 C217.125084,199.72623 216.893547,198.334015 216.91052,198.187624 C216.966425,197.711534 218.65438,195.63345 218.998222,195.573939 Z"></path>
                                <path id="[color]color--globalStyle1/animals/dogvscat/dino" fill="#233a48" fill-rule="nonzero" d="M36.7736157 158.75079C36.7736157 158.75079 46.5827506 154.485819 55.1120933 161.878437 63.641436 169.271054 57.9554079 178.795858 57.9554079 178.795858L57.9554079 178.795858 50.2784584 181.07051C50.2784584 181.07051 49.8149921 181.38129 49.0515652 181.822515 49.3040371 184.64443 49.3945422 188.058812 49.3566282 190.474463L49.357383 190.489074C49.3753771 190.636976 49.3884589 190.786397 49.39646 190.937169 49.419414 191.027788 49.440982 191.119777 49.4609303 191.212547L50.8819865 203.451423C50.9064767 203.986947 50.9163496 204.485066 50.9101354 204.948449 51.2417872 205.825264 51.4347314 206.800276 51.4998815 207.80993 51.5936567 209.262244 51.5425612 210.002829 51.2233646 210.896098 50.6781455 212.425357 49.143477 212.79084 49.143477 212.79084L49.1057548 212.791774C48.609427 212.804001 43.3488459 212.931531 41.2849882 212.896037 36.7404938 212.816688 37.3386118 209.560402 39.0981006 208.542699 39.7712053 208.153638 40.2267284 207.725763 40.5342896 207.335952 40.4218597 207.019478 40.3260605 206.67982 40.2481101 206.31758L36.7297337 193.951266 36.7240138 193.924449C36.4535323 193.287936 36.3672562 192.827285 36.3672562 192.827285 36.3672562 192.827285 34.8235708 183.101706 35.2076888 178.982206 35.169818 178.551201 35.1487787 178.094948 35.1493798 177.603229 35.1571944 168.645886 36.7736157 158.75079 36.7736157 158.75079zM106.249137 162.507132C112.916799 162.495129 118.33112 167.890815 118.34256 174.558478 118.345547 176.246433 117.999901 177.852635 117.377137 179.312163L117.377137 179.312163 117.37894 179.313365 117.371726 179.322983C116.695462 180.903938 107.949114 192.580163 107.949114 192.580163 107.949174 192.580163 109.339055 199.068846 110.837251 203.184319 111.389606 203.947939 111.776334 204.869894 112.011753 205.87344 112.102164 206.128066 112.151592 206.387591 112.161173 206.646545 112.210928 206.970151 112.246414 207.300108 112.267947 207.633861 112.362323 209.086175 112.311228 209.82676 111.992031 210.720029 111.446211 212.249288 109.912143 212.614771 109.912143 212.614771 109.912143 212.614771 104.220705 212.757237 102.053053 212.719967 97.508559 212.640619 98.1072781 209.384333 99.8661657 208.36663 100.540621 207.976788 100.996697 207.547977 101.304379 207.157537 99.0130028 204.544128 96.5522139 200.536657 94.9637178 197.40657L94.8599918 197.313228C93.4243191 195.967321 92.5259369 194.054743 92.5218682 191.931671 92.5210073 191.399234 92.5764276 190.879847 92.682519 190.379146 92.3235111 187.065486 92.6311261 183.037894 93.0520691 178.896185 93.3021365 176.439994 94.00485 172.226719 95.517277 169.110494 95.5383163 169.056994 95.5533444 169.021528 95.5533444 169.021528L95.5533444 169.021528C97.5677096 165.161713 101.594035 162.515567 106.249137 162.507132zM103.28734 122.899358C104.455925 123.38687 105.973161 131.189454 105.497071 132.556409 104.95606 134.111516 101.306037 139.676117 101.306037 139.676117L88.9006494 133.290982C88.9006494 133.290982 91.4223629 127.301387 91.8058798 126.830707 92.9035315 125.483589 102.118155 122.411847 103.28734 122.899358zM52.9709511 118.475029C53.5889062 120.001281 54.5092264 126.592602 54.5092264 126.592602L40.9707208 129.963102C40.9707208 129.963102 38.9208893 123.796175 38.8992489 123.189641 38.8373331 121.452995 43.7449062 113.070326 44.94535 112.666972 46.1457938 112.263619 52.4281365 117.133321 52.9709511 118.475029zM84.466882 112.633249C85.7280393 112.748665 89.5139157 119.737929 89.4700337 121.184233 89.4195393 122.830109 87.6047472 129.233278 87.6047472 129.233278L73.8558483 126.858839C73.8558483 126.858839 74.4665899 120.388946 74.6914101 119.825092 75.3346124 118.211075 83.2057247 112.519036 84.466882 112.633249zM65.9775225 110.630498C67.2440899 110.610108 71.7555225 117.153939 71.8667303 118.596636 71.9929663 120.238304 70.8736742 126.798967 70.8736742 126.798967L56.9498483 125.909906C56.9498483 125.909906 56.8644888 119.41176 57.0273933 118.827467 57.4950674 117.153338 64.7109551 110.651585 65.9775225 110.630498z" opacity="1.00"></path>
                                <path id="shadow--globalStyle1/animals/dogvscat/dino" fill="#000" fill-opacity=".2" d="M103.28734,122.899358 C104.455925,123.38687 105.973161,131.189454 105.497071,132.556409 C104.95606,134.111516 101.306037,139.676117 101.306037,139.676117 L88.9006494,133.290982 C88.9006494,133.290982 91.4223629,127.301387 91.8058798,126.830707 C92.9035315,125.483589 102.118155,122.411847 103.28734,122.899358 Z M52.9709511,118.475029 C53.5889062,120.001281 54.5092264,126.592602 54.5092264,126.592602 L40.9707208,129.963102 C40.9707208,129.963102 38.9208893,123.796175 38.8992489,123.189641 C38.8373331,121.452995 43.7449062,113.070326 44.94535,112.666972 C46.1457938,112.263619 52.4281365,117.133321 52.9709511,118.475029 Z M84.466882,112.633249 C85.7280393,112.748665 89.5139157,119.737929 89.4700337,121.184233 C89.4195393,122.830109 87.6047472,129.233278 87.6047472,129.233278 L73.8558483,126.858839 C73.8558483,126.858839 74.4665899,120.388946 74.6914101,119.825092 C75.3346124,118.211075 83.2057247,112.519036 84.466882,112.633249 Z M65.9775225,110.630498 C67.2440899,110.610108 71.7555225,117.153939 71.8667303,118.596636 C71.9929663,120.238304 70.8736742,126.798967 70.8736742,126.798967 L56.9498483,125.909906 C56.9498483,125.909906 56.8644888,119.41176 57.0273933,118.827467 C57.4950674,117.153338 64.7109551,110.651585 65.9775225,110.630498 Z"></path>
                                <path id="[color]color--globalStyle1/animals/dogvscat/dino" fill="#233a48" fill-rule="nonzero" d="M84.0121921,125.023549 C97.3443359,128.914826 109.319672,138.298418 115.997671,149.224299 C116.108022,149.314185 116.165452,149.363404 116.165452,149.363404 C116.165452,149.363404 131.416558,165.849219 144.099064,176.258275 C181.6218,207.056241 225.241733,198.504657 225.241733,198.504657 C225.241733,198.504657 208.799199,208.195971 181.6218,207.056241 C159.58355,206.131434 129.862097,190.965684 113.704635,181.750428 C100.013853,190.981174 70.0382492,196.069387 47.8035124,188.827408 C21.3847315,180.222324 15.8363607,165.040948 16.2980236,149.878206 C17.0512315,125.182847 54.6581247,116.456937 84.0121921,125.023549 Z" opacity="1.00"></path>
                                <path id="Fill-27--globalStyle1/animals/dogvscat/dino" fill="#FFF" d="M47.5892719,188.933086 C70.1596596,196.284226 100.702148,190.929417 114.098789,181.43467 C109.325266,180.700698 103.682519,184.463732 99.9585584,184.647075 C89.6402719,185.154423 84.125564,186.507552 78.0211539,185.59144 C70.9850022,184.535867 69.9913449,188.553176 57.5018,186.819535 C45.3657157,185.135187 44.355227,178.95203 41.9711708,178.875687 C34.8202045,178.64726 36.5580528,179.913226 28.7007663,177.640979 C21.8467551,175.658474 17.9574854,163.197181 16.3308449,152.963653 C16.5358281,167.305861 22.5717101,180.784254 47.5892719,188.933086" opacity=".644"></path>
                                <path id="shadow--globalStyle1/animals/dogvscat/dino" fill="#000" fill-opacity=".08" d="M174.881882,193.540758 C175.883955,193.891815 176.88182,194.227242 177.873073,194.541028 C177.846624,195.101876 177.650056,195.744478 176.864989,195.659719 C175.501039,195.513646 174.819365,194.85241 174.819365,193.76077 C174.819365,193.672404 174.845213,193.602674 174.881882,193.540758 Z M164.54436,191.710337 C164.54436,190.619298 167.543365,191.710337 167.543365,191.710337 C167.543365,191.710337 167.95273,193.755961 166.588781,193.609888 C165.226034,193.463815 164.54436,192.801376 164.54436,191.710337 Z M143.426106,175.701514 C143.644314,175.882452 143.864325,176.066997 144.081331,176.24493 C149.681999,180.841722 155.418522,184.556666 161.12619,187.559879 C156.266106,189.414947 149.116943,184.233261 145.109853,180.565205 C142.979471,178.61516 142.923567,176.924801 143.426106,175.701514 Z M131.846482,172.941696 C131.846482,171.850656 134.846089,172.941696 134.846089,172.941696 C134.846089,172.941696 135.255454,174.986718 133.891504,174.841246 C132.528757,174.695173 131.846482,174.032735 131.846482,172.941696 Z M123.926258,162.571412 C123.653348,161.343917 127.606938,162.571412 127.606938,162.571412 C127.606938,162.571412 128.930612,163.133462 130.387735,163.850603 C131.576157,165.002957 132.799443,166.172743 134.043168,167.341328 C133.479314,168.11858 131.773926,168.539968 129.379651,167.34253 C125.834825,165.570417 124.198567,163.798305 123.926258,162.571412 Z M114.237047,160.138424 C115.025721,159.321497 116.4053,159.580581 116.969154,160.566424 C117.246873,161.052132 117.466283,161.599756 117.409778,162.06202 C117.273924,163.189728 115.092446,163.115188 114.125238,161.479531 C113.786204,160.906059 113.920255,160.46784 114.237047,160.138424 Z M117.783616,151.097465 C119.17101,152.564808 121.369319,154.862302 124.058144,157.586594 C122.047987,157.954482 119.258774,156.937381 117.567813,154.354954 C116.300644,152.417533 116.892751,151.515847 117.783616,151.097465 Z M104.267412,146.508307 C105.018817,145.756903 106.109255,146.094734 106.86066,146.486066 C107.453367,146.793841 108.050884,147.093201 108.676654,147.326437 C109.165969,147.508577 109.699766,147.765858 109.905351,148.074234 C110.32253,148.700605 110.948901,151.623869 109.905351,152.25024 C108.861199,152.876611 106.6683,152.772616 105.102974,151.310684 C103.536446,149.848751 103.014671,147.761049 104.267412,146.508307 Z M103.028797,140.456315 C103.81687,139.639388 105.196449,139.898472 105.760303,140.883714 C106.038623,141.369422 106.257432,141.917647 106.201528,142.37931 C106.065674,143.507619 103.884196,143.433079 102.916387,141.797422 C102.577954,141.22395 102.712005,140.78513 103.028797,140.456315 Z M86.3571753,139.270539 C87.1326247,137.737072 89.8581191,139.270539 89.8581191,139.270539 C89.8581191,139.270539 91.6067876,139.818763 91.6669,141.023415 C91.7276135,142.228668 90.2921303,142.557483 89.1283551,142.557483 C87.9651809,142.557483 85.5811247,140.804606 86.3571753,139.270539 Z M55.9368949,137.798748 C56.1430803,136.767821 58.4279511,137.077399 58.4279511,137.077399 C58.4279511,137.077399 60.5763669,137.386978 60.6797601,138.502062 C60.7825522,139.617748 59.648232,139.861203 58.4279511,139.963995 C57.2070691,140.067388 55.7307096,138.829675 55.9368949,137.798748 Z M65.2415669,127.774531 C65.5812017,125.205329 72.9473702,126.326424 72.9473702,126.326424 C72.9473702,126.326424 78.1092185,128.247615 80.4061118,132.171149 C82.7030051,136.09348 78.8888758,136.957295 77.0380163,135.440059 C75.1865556,133.923424 72.2915444,132.707351 70.042741,133.242351 C67.7939376,133.777351 64.9025331,130.343733 65.2415669,127.774531 Z M86.101277,125.682741 C91.792114,127.607539 97.1896028,130.51878 101.979957,134.096668 C100.640653,134.599207 99.0007882,134.92141 97.1505298,134.936438 C91.285968,134.98573 88.0585354,132.681623 86.3555522,128.590376 C85.9077152,127.515567 85.8890803,126.539342 86.101277,125.682741 Z M56.3925466,121.960584 C62.2366702,125.924393 53.9056983,132.702061 51.0389399,132.908848 C47.8848444,133.136674 44.6459904,129.727101 41.2364174,130.863825 C37.8268444,131.999949 36.0084455,133.136674 33.4218107,129.727101 C32.9198725,129.064662 32.781614,128.325881 32.8801983,127.564859 C39.5815242,124.341634 47.7676253,122.463123 56.3925466,121.960584 Z"></path>
                                <path id="[color]color--globalStyle1/animals/dogvscat/dino" fill="#233a48" fill-rule="nonzero" d="M13.5160837,0.60096646 C14.0294433,0.589582022 15.8760949,3.23212135 15.924786,3.81701461 C15.9624942,4.270743 15.7710382,5.6537042 15.6453953,6.48777296 C16.1898108,5.73927357 17.0509949,4.57191749 17.2030152,4.45354438 C17.8480208,3.95100506 22.3955208,3.50978034 22.8806275,3.85602753 C23.3657343,4.20227472 23.2425039,7.93946011 22.8806275,8.51593764 C22.7181321,8.77498146 22.2682439,9.26955626 21.7830944,9.77342725 C22.0083118,9.75138344 22.1697862,9.74131852 22.2265449,9.74944326 C23.0789382,9.87147135 26.7385787,12.9997185 26.8299494,13.6212803 C26.9213202,14.242241 23.9950506,16.8799713 23.2929382,17.0272466 C22.4946461,17.194359 19.1980843,17.0663197 19.1980843,17.0663197 L18.7406292,10.1660219 C18.7406292,10.1660219 18.7631531,10.1627769 18.8045913,10.1568578 L15.2110049,7.12692979 L9.8931118,6.82082921 C9.8931118,6.82082921 9.84201629,4.18550337 9.90693764,3.94805955 C10.0920837,3.26758764 13.0027242,0.612424719 13.5160837,0.60096646 Z" opacity="1.00"></path>
                                <path id="shadow--globalStyle1/animals/dogvscat/dino" fill="#000" fill-opacity=".2" d="M13.5160837,0.60096646 C14.0294433,0.589582022 15.8760949,3.23212135 15.924786,3.81701461 C15.9624942,4.270743 15.7710382,5.6537042 15.6453953,6.48777296 C16.1898108,5.73927357 17.0509949,4.57191749 17.2030152,4.45354438 C17.8480208,3.95100506 22.3955208,3.50978034 22.8806275,3.85602753 C23.3657343,4.20227472 23.2425039,7.93946011 22.8806275,8.51593764 C22.7181321,8.77498146 22.2682439,9.26955626 21.7830944,9.77342725 C22.0083118,9.75138344 22.1697862,9.74131852 22.2265449,9.74944326 C23.0789382,9.87147135 26.7385787,12.9997185 26.8299494,13.6212803 C26.9213202,14.242241 23.9950506,16.8799713 23.2929382,17.0272466 C22.4946461,17.194359 19.1980843,17.0663197 19.1980843,17.0663197 L18.7406292,10.1660219 C18.7406292,10.1660219 18.7631531,10.1627769 18.8045913,10.1568578 L15.2110049,7.12692979 L9.8931118,6.82082921 C9.8931118,6.82082921 9.84201629,4.18550337 9.90693764,3.94805955 C10.0920837,3.26758764 13.0027242,0.612424719 13.5160837,0.60096646 Z"></path>
                                <path id="[color]color--globalStyle1/animals/dogvscat/dino" fill="#233a48" fill-rule="nonzero" d="M11.2619904 4.45126011C17.5275017 4.40617584 22.4302657 6.83651854 22.2120579 9.87880506 22.2003351 10.0431514 22.1739067 10.2059224 22.133408 10.3668159L22.2147028 9.80775225C18.8087365 32.3913646 21.5907365 93.1210781 30.1916129 142.513601 30.644259 145.11346 31.3115062 150.922117 27.8412197 152.804235 22.2627927 155.829089 17.1832983 152.775983 16.5034275 147.802887 11.7172344 112.775579 6.91622396 48.8947825 10.6345286 15.4654689L10.4733163 15.4686534C4.20780506 15.5131365-.209852247 14.2195185.00775449438 11.177232.225361236 8.13494551 4.99647921 4.49634438 11.2619904 4.45126011zM90.0431449 164.208895C96.7108079 164.196892 102.125729 169.592577 102.13717 176.26024 102.140156 177.948195 101.79451 179.554398 101.171145 181.013926L101.171145 181.013926 101.172948 181.015128 101.166336 181.024746C100.489471 182.605701 91.7437236 194.281926 91.7437236 194.281926 91.7437837 194.281926 92.5895582 198.231591 93.6729613 201.922376 95.3694161 203.095292 96.2226481 205.269515 96.3752006 207.633674 96.4689758 209.085989 96.4178803 209.826573 96.0986837 210.719843 95.5534646 212.249101 94.0187961 212.615185 94.0187961 212.615185 94.0187961 212.615185 88.3273579 212.757652 86.1603073 212.719781 81.6158129 212.640433 82.2139309 209.384747 83.9734197 208.367045 84.1406018 208.270359 84.2943613 208.171283 84.435765 208.070995 81.1698773 204.033758 77.7629987 197.65394 77.1497051 195.317662L77.1785549 195.422674C77.0507085 195.05749 76.9406227 194.676478 76.8466787 194.281926 75.9804596 190.644527 76.3267067 185.7081 76.8466787 180.597948 77.0961449 178.141757 77.7994596 173.928482 79.3112854 170.812257 79.3329258 170.758757 79.3473528 170.723291 79.3473528 170.723291L79.3473528 170.723291C81.3623191 166.863476 85.3886449 164.21733 90.0431449 164.208895z" opacity="1.00"></path>
                                <path id="Stroke-87--globalStyle1/animals/dogvscat/dino" fill="#D6D6D6" fill-rule="nonzero" d="M84.1721221,213.18681 C83.971642,212.002521 84.4333085,211.100469 85.4247053,210.524932 C85.5832796,210.432875 85.6372022,210.229698 85.545145,210.071123 C85.4530877,209.912549 85.2499106,209.858626 85.0913363,209.950684 C83.8679322,210.660908 83.2691409,211.830889 83.5174364,213.297637 C83.5480404,213.478424 83.7194063,213.600171 83.9001928,213.569566 C84.0809792,213.538962 84.2027261,213.367596 84.1721221,213.18681 Z"></path>
                                <path id="Stroke-89--globalStyle1/animals/dogvscat/dino" fill="#D6D6D6" fill-rule="nonzero" d="M86.4161164,213.693978 C86.2156651,212.509858 86.6777399,211.607137 87.6686465,211.032131 C87.8272378,210.940103 87.8811981,210.736936 87.7891702,210.578345 C87.6971423,210.419753 87.4939752,210.365793 87.3353839,210.457821 C86.1123995,211.167498 85.513158,212.338191 85.7614308,213.804805 C85.7920348,213.985592 85.9634007,214.107338 86.1441872,214.076734 C86.3249736,214.04613 86.4467205,213.874764 86.4161164,213.693978 Z"></path>
                                <path id="Stroke-91--globalStyle1/animals/dogvscat/dino" fill="#D6D6D6" fill-rule="nonzero" d="M83.042126,212.304458 C82.841682,211.120884 83.3037997,210.218214 84.2946599,209.643235 C84.4532513,209.551207 84.5072116,209.34804 84.4151837,209.189448 C84.3231558,209.030857 84.1199887,208.976897 83.9613974,209.068925 C82.7384644,209.778572 82.1391554,210.949221 82.3874481,212.415331 C82.4180648,212.596115 82.5894392,212.71785 82.7702235,212.687233 C82.9510078,212.656617 83.0727427,212.485242 83.042126,212.304458 Z"></path>
                                <path id="[color]color--globalStyle1/animals/dogvscat/dino" fill="#233a48" fill-rule="nonzero" d="M20.762268,158.562338 C20.762268,158.562338 30.5714028,154.297366 39.1013466,161.689984 C47.6306893,169.082001 41.9440601,178.607406 41.9440601,178.607406 L41.9440601,178.607406 L34.2677118,180.881456 C34.2677118,180.881456 33.8036444,181.192838 33.0402174,181.633462 C33.2932242,184.461837 33.3839636,187.88442 33.3452676,190.300807 C33.3643124,190.447443 33.3773174,190.595886 33.3853088,190.745665 C33.4084626,190.837306 33.4303011,190.930302 33.4504843,191.024094 L34.8709393,203.262971 C34.9255342,204.456789 34.9074874,205.464719 34.8005155,206.316346 C35.0201508,207.04342 35.1528486,207.824864 35.2046831,208.628299 C35.2984584,210.080614 35.2473629,210.821198 34.9287674,211.714468 C34.3835483,213.243125 32.8488798,213.60921 32.8488798,213.60921 C32.8488798,213.60921 27.1574416,213.751676 24.9897899,213.714406 C20.4452955,213.635058 21.0440146,210.378771 22.8029022,209.361069 C23.8927067,208.73115 24.4123441,207.999487 24.6570659,207.492362 C24.4847553,207.080624 24.3440823,206.625852 24.2370629,206.128527 L20.7186865,193.762813 L20.7124212,193.733549 C20.4426058,193.097983 20.3565096,192.638231 20.3565096,192.638231 C20.3565096,192.638231 18.8128242,182.913254 19.196341,178.793754 C19.1590713,178.362748 19.138032,177.905894 19.138032,177.414776 C19.1464478,168.457434 20.762268,158.562338 20.762268,158.562338 Z" opacity="1.00"></path>
                                <path id="Stroke-101--globalStyle1/animals/dogvscat/dino" fill="#D6D6D6" fill-rule="nonzero" d="M23.0019614,213.192077 C22.801464,212.008187 23.2633835,211.10564 24.2544218,210.530897 C24.4130367,210.438909 24.467049,210.235756 24.3750618,210.077141 C24.2830745,209.918526 24.0799212,209.864514 23.9213063,209.956501 C22.6980572,210.665913 22.0989388,211.836534 22.3472835,213.30295 C22.3779002,213.483734 22.5492746,213.605469 22.7300589,213.574852 C22.9108432,213.544236 23.0325781,213.372861 23.0019614,213.192077 Z"></path>
                                <path id="Stroke-103--globalStyle1/animals/dogvscat/dino" fill="#D6D6D6" fill-rule="nonzero" d="M25.2458957,213.699245 C25.0454578,212.515707 25.5075173,211.613016 26.4985564,211.037347 C26.6571071,210.945249 26.7109777,210.742058 26.6188798,210.583508 C26.5267818,210.424957 26.323591,210.371086 26.1650403,210.463184 C24.9421121,211.173551 24.3429415,212.344106 24.5912178,213.810118 C24.6218345,213.990902 24.7932089,214.112637 24.9739932,214.08202 C25.1547775,214.051404 25.2765124,213.880029 25.2458957,213.699245 Z"></path>
                                <path id="Stroke-105--globalStyle1/animals/dogvscat/dino" fill="#D6D6D6" fill-rule="nonzero" d="M21.8719131,212.310372 C21.6714865,211.126398 22.1333508,210.224224 23.1245698,209.648451 C23.2831205,209.556353 23.3369912,209.353162 23.2448932,209.194612 C23.1527953,209.036061 22.9496044,208.98219 22.7910537,209.074288 C21.5679654,209.784748 20.9689838,210.954758 21.2172274,212.421199 C21.2478315,212.601985 21.4191973,212.723732 21.5999838,212.693128 C21.7807703,212.662524 21.9025171,212.491158 21.8719131,212.310372 Z"></path>
                                <path id="Stroke-50--globalStyle1/animals/dogvscat/dino" fill="#E7E7E7" fill-rule="nonzero" d="M11.2290413,8.35989617 C11.6749031,7.8422402 11.8066009,7.84867956 12.2293928,8.42261618 C12.5029056,8.79390752 13.0256226,8.87317272 13.3969139,8.59965997 C13.7682053,8.32614721 13.8474705,7.80343021 13.5739577,7.43213888 C12.5201548,6.00161002 11.1153615,5.93292269 9.9636913,7.27003866 C9.66273545,7.61945541 9.70202078,8.14668657 10.0514375,8.44764241 C10.4008543,8.74859825 10.9280854,8.70931292 11.2290413,8.35989617 Z"></path>
                            </g>
                        </g>
                    </g>
                </svg></g>
        </g>
    </g>
    <g transform="translate(386,249)">
        <g transform="translate(30.25,179)">
            <g><svg xmlns="http://www.w3.org/2000/svg" width="251" height="250" viewBox="0 0 251 250">
                    <g id="Symbols--globalStyle1/people/man/bottom/2" fill="none" fill-rule="evenodd" stroke="none" stroke-width="1">
                        <g id="globalStyle1/people/man/bottom/2--globalStyle1/people/man/bottom/2">
                            <path id="Fill-1--globalStyle1/people/man/bottom/2" fill="#E9E9E9" d="M127.4056,223.8179 L123.6646,247.5249 L151.8426,247.5289 C151.9246,245.5429 150.5936,245.6079 147.1436,245.5429 C141.9686,245.4439 131.0006,246.5969 131.5346,243.0979 C131.6886,242.0849 133.6986,235.1189 137.2276,224.0469 L127.4056,223.8179 Z"></path>
                            <path id="shadow--globalStyle1/people/man/bottom/2" fill="#000" fill-opacity=".04" d="M127.405848,223.8179 L123.664848,247.5249 L151.842848,247.5289 C151.924848,245.5429 150.593848,245.6079 147.143848,245.5429 C141.968848,245.4439 131.000848,246.5969 131.534848,243.0979 C131.688848,242.0849 133.698848,235.1189 137.227848,224.0469 L127.405848,223.8179 Z"></path>
                            <path id="[clothes]shoes--globalStyle1/people/man/bottom/2" fill="#294b67" d="M123.6644,249.5269 L151.8464,249.5289 L151.8424,247.5289 C151.8424,247.5289 142.6464,247.5239 123.6644,247.5409 L123.6644,249.5269 Z" opacity="1.00"></path>
                            <path id="Fill-5--globalStyle1/people/man/bottom/2" fill="#E9E9E9" d="M106.1136,222.897 L106.5066,247.539 L134.9246,247.529 C134.9246,247.529 133.9556,245.574 130.5056,245.508 C125.3306,245.411 113.0006,245.95 113.4906,242.659 C113.6416,241.644 114.0316,236.319 114.8106,223.818 L106.1136,222.897 Z"></path>
                            <path id="[clothes]shoes--globalStyle1/people/man/bottom/2" fill="#294b67" d="M106.5061,249.5249 L134.9241,249.5279 L134.9241,247.5289 C134.9241,247.5289 125.4871,247.5219 106.5061,247.5389 L106.5061,249.5249 Z" opacity="1.00"></path>
                            <path id="[clothes]pants--globalStyle1/people/man/bottom/2" fill="#294b67" d="M157.810092,16.6362677 L163.50789,137.904519 C163.553638,138.406771 163.577,138.915282 163.577,139.4291 C163.577,139.447433 163.57697,139.46576 163.576911,139.48408 L163.5775,139.4839 C163.569755,141.575972 163.176569,143.576387 162.463116,145.4243 L145.9995,233.1879 L115.4355,233.1929 L128.4565,139.6059 L128.5345,139.605268 L128.5335,139.527268 L128.4562,139.527861 L118,16.6362677 L157.810092,16.6362677 Z" opacity="1.00"></path>
                            <path id="shadow--globalStyle1/people/man/bottom/2" fill="#000" fill-opacity=".04" d="M157.809592,17.6362677 L163.506018,137.889533 C163.552671,138.396656 163.5765,138.910171 163.5765,139.4291 C163.5765,139.447433 163.57647,139.46576 163.576411,139.48408 L163.577,139.4839 C163.568635,141.57728 163.176209,143.574255 162.464544,145.419304 L145.999,233.1879 L115.435,233.1929 L128.456,139.6059 L128.534,139.605268 L128.533,139.527268 L128.4557,139.527861 L117.9995,17.6362677 L157.809592,17.6362677 Z"></path>
                            <path id="[clothes]pants--globalStyle1/people/man/bottom/2" fill="#294b67" d="M131.0003,17.0745 L127.543204,138.361534 C127.565624,138.71459 127.577,139.070553 127.577,139.4291 C127.577,140.185026 127.526445,140.92946 127.428445,141.659375 L123.9671,233.1927 L94.0081,233.1927 L92.4751,139.4837 L92.5333,139.4835 L92.5323,139.4725 L92.4753,139.472726 L92.0003,17.0745 L131.0003,17.0745 Z" opacity="1.00"></path>
                        </g>
                    </g>
                </svg></g>
        </g>
        <g transform="translate(83.75,15)">
            <g><svg xmlns="http://www.w3.org/2000/svg" width="120" height="150" viewBox="0 0 120 150">
                    <g id="Symbols--globalStyle1/people/man/head/10" fill="none" fill-rule="evenodd" stroke="none" stroke-width="1">
                        <g id="globalStyle1/people/man/head/10--globalStyle1/people/man/head/10">
                            <polygon id="[skin]neck--globalStyle1/people/man/head/10" fill="#c3786f" points="69.0765532 92.0485 88.5735532 92.0485 85.8989543 40.509 74.5815532 37.4535" opacity="1.00"></polygon>
                            <polygon id="shadow--globalStyle1/people/man/head/10" fill="#000" fill-opacity=".04" points="69.0765532 92.0485 88.5735532 92.0485 85.8989543 40.509 74.5815532 37.4535"></polygon>
                            <path id="[skin]face--globalStyle1/people/man/head/10" fill="#c3786f" d="M85.7290118,50.1722562 C91.2372406,50.4117241 93.3515741,42.3634794 92.9533352,31.0442262 C92.5550963,19.7249731 87.7669582,10.3547783 82.2587294,10.1153103 C76.7505006,9.87584241 72.6080353,18.857783 73.0062742,30.1770361 C73.4045131,41.4962892 80.220783,49.9327882 85.7290118,50.1722562 Z" transform="rotate(8 82.99 30.144)" opacity="1.00"></path>
                            <path id="[hair]hair--globalStyle1/people/man/head/10" fill="#b74d55" d="M73.1826731,31.4808543 L75.7935539,27.4671609 C76.4129057,21.476275 77.1351275,18.3259871 77.9602192,18.0162973 C81.8874589,16.5422477 91.6144251,18.8871472 92.1490318,19.9764738 C92.4283264,20.5455707 102.094114,12.9859766 98.6726795,9.38685301 C97.0135463,7.64155455 86.8447053,7.89113216 81.4279763,8.41586026 C70.3699687,9.487069 67.6215343,17.1754003 73.1826731,31.4808543 Z" transform="rotate(-2 84.898 19.754)" opacity="1.00"></path>
                            <path id="smile--globalStyle1/people/man/head/10" fill="#FFF" fill-rule="nonzero" d="M89.2777577,41.8888747 C89.9340077,41.8888747 91.2777577,41.4523947 91.2777577,39.8888747 C91.2777577,39.8888747 87.2777577,39.8888747 87.2777577,39.8888747 C87.2777577,41.336656 88.6215077,41.8888747 89.2777577,41.8888747 Z" transform="rotate(-2 89.278 40.889)"></path>
                            <g id="Group--globalStyle1/people/man/head/10" transform="rotate(17 -54.29 266.52)">
                                <path id="Path-212--globalStyle1/people/man/head/10" fill="#FFF" d="M19.2499633,1.41256588 L18.3219074,0.801516597 C15.4564594,1.00615081 12.8070753,1.95583709 10.3737552,3.65057542 C8.03057411,5.28253449 5.89953669,7.09199062 3.98064293,9.07894383 C3.93143143,9.12990078 3.85792811,9.20659886 3.76013298,9.30903807 L4.35757288,14.5225626 C5.91359727,15.5900906 8.1047579,16.4201255 10.9310548,17.0126673 C15.1705001,17.90148 19.4726692,16.5375007 20.4047423,13.5446998 C21.0261244,11.5494992 20.6411981,7.50545457 19.2499633,1.41256588 Z"></path>
                                <path id="Path-209--globalStyle1/people/man/head/10" fill="#D3EEF4" d="M19.2463822,1.39392385 C17.5482606,1.22950586 15.5723429,1.67212903 13.3186291,2.72179338 C11.0649153,3.77145772 8.07789655,6.20142895 4.35757288,10.0117071 L4.86642497,13.8377483 C8.42829019,16.1855559 11.955869,17.1483318 15.4491614,16.726076 C20.1932264,16.1526316 22.199272,13.3234064 22.2381886,9.30903808 C22.2389605,9.22493813 22.0279188,9.15703325 22.0278255,9.14593586 C22.0249666,8.80599806 22.0249666,7.07491218 22.0278255,6.74764528 C22.0364835,5.75655878 21.5165646,4.96094595 21.0801937,4.17684368 C21.0801937,4.17684368 20.9249044,4.12978897 20.6143259,4.03567953 C20.4674694,3.32297588 20.3940411,2.96662406 20.3940411,2.96662406 C20.0986561,2.60359957 19.7161032,2.07936617 19.2463822,1.39392385 Z"></path>
                                <path id="Path-210--globalStyle1/people/man/head/10" fill="#000" fill-opacity=".08" d="M17.5164119,7.73509831 C15.7298884,8.10323121 12.155454,8.52644961 6.79310855,9.00475349 C12.2964123,8.15660796 15.8315528,7.38886447 17.3985301,6.70152301 C18.8719106,6.05523698 19.9159284,5.51488226 20.9180719,4.84808513 C20.9180719,4.84808513 21.4640755,5.78321009 21.4485733,5.79668592 C20.3472756,6.75402946 19.0856583,7.41173774 17.5164119,7.73509831 Z" opacity=".541" transform="scale(1 -1) rotate(41 32.647 0)"></path>
                                <path id="Path-210-Copy--globalStyle1/people/man/head/10" fill="#000" fill-opacity=".08" d="M18.1794153,14.334642 C16.5181257,14.8521831 13.5310789,15.5810121 9.21827482,16.521129 C13.6771481,15.1690212 16.6431677,14.0675389 18.1163336,13.216682 C19.2049454,12.5879322 20.1261598,11.9645211 20.9314228,11.3550397 C20.9438523,11.3456321 20.8465677,11.8661361 20.6543008,12.3967042 C20.4938964,12.8393467 20.2545144,13.2939645 20.0785336,13.4069999 C19.4563566,13.8066346 18.9155208,14.1053232 18.1794153,14.334642 Z" opacity=".541" transform="rotate(16 15.075 13.938)"></path>
                                <path id="Path-211--globalStyle1/people/man/head/10" fill="#000" fill-opacity=".08" d="M21.7442211,8.06043222 C20.9679993,8.74455468 19.1641522,10.10956 16.5487299,10.6382049 C13.7581274,11.2022583 11.1776787,11.6630326 8.80738396,12.0205279 C15.2534793,12.2915357 19.1830641,12.1476504 20.5961383,11.588872 C21.8241603,11.1032696 22.5886347,10.6451481 22.8895616,10.2145074 C22.9121032,10.1822492 21.7457432,8.05961814 21.7442211,8.06043222 Z" opacity=".541" transform="scale(1 -1) rotate(28 56.385 0)"></path>
                                <polygon id="Path-213--globalStyle1/people/man/head/10" fill="#FFF" points="4.18577597 11.068765 0.214777774 8.70922333 0.828502106 9.98742085 4.35757288 12.0642018"></polygon>
                            </g>
                        </g>
                    </g>
                </svg></g>
        </g>
        <g transform="translate(112.75,82)">
            <g><svg xmlns="http://www.w3.org/2000/svg" width="193" height="193" viewBox="0 0 193 193">
                    <g id="Symbols--globalStyle1/people/man/top/4" fill="none" fill-rule="evenodd" stroke="none" stroke-width="1">
                        <g id="globalStyle1/people/man/top/4--globalStyle1/people/man/top/4">
                            <path id="[skin]hand--globalStyle1/people/man/top/4" fill="#c3786f" d="M80.5307337,16 C80.9607323,21.0104749 89.0229727,67.3505352 91.295324,81.2076888 C95.2487622,85.1973121 104.236446,96.7691352 128,125.880982 L128,125.880982 L127.831378,126.067907 C127.87743,126.112328 127.922601,126.158131 127.966839,126.205317 L128.038,126.286 L136.481187,128.376456 L143.280787,129.486216 L149.174412,133.983788 C149.632718,134.353498 149.414221,134.624142 149.319474,134.610969 C147.308048,134.342212 145.823946,133.703986 144.062975,132.352217 C141.755003,132.714193 140.207307,131.370556 140.389959,133.514115 C140.410481,133.765805 143.633816,135.697656 147.197939,136.784314 C147.703507,136.938124 150.105019,137.865622 150.410388,137.961051 C152.16217,138.513974 152.466663,138.506307 153.760304,138.686556 C154.158209,138.742472 154.618261,138.988356 155.139601,139.426422 C155.213932,139.489743 155.272926,139.564718 155.30672,139.643795 C155.400532,139.858673 155.292052,140.039615 155.063885,140.048335 C154.551691,140.066488 153.992825,140.065457 153.388919,140.042298 C152.504911,140.010828 149.826888,139.551927 147.58613,138.916617 C146.069165,138.486331 144.182363,137.970851 143.946857,137.97947 C143.581162,137.991485 146.532309,139.086008 148.815329,140.163161 C151.097492,141.242528 152.879661,140.747227 155.153475,140.986229 C155.466792,141.017989 156.001222,141.2471 156.757706,141.669867 C156.798343,141.691934 157.126625,141.996073 156.946305,142.174541 C156.764435,142.35447 154.018565,142.653305 152.488399,142.618859 C149.937918,142.560705 149.458406,142.334576 148.341142,141.888293 C146.950156,141.332186 144.437801,140.443208 143.740149,140.230387 C143.042498,140.017565 146.639413,142.046527 149.499915,142.948463 C149.944495,143.089566 150.891456,143.256878 151.325875,143.342962 C152.629132,143.601214 154.45437,143.427626 154.963424,143.888513 C155.036898,143.954046 155.100295,144.029082 155.150317,144.106899 C155.380753,144.466793 155.279995,144.825829 154.925022,144.909187 C154.003847,145.12342 152.702213,145.152937 151.018569,144.9992 C150.62322,144.963343 149.073573,144.777339 148.5401,144.583839 C146.284199,143.771816 143.64311,142.29222 143.354714,142.314201 C143.067093,142.33545 144.689664,143.03269 146.617377,144.001119 C147.05673,144.222986 148.912631,144.937534 149.251151,145.097199 C149.699195,145.308062 150.037235,145.383917 150.836001,145.667103 C152.429905,146.232682 152.387092,146.923276 151.418582,146.998175 C150.449296,147.073805 143.367356,144.780985 140.366577,143.363917 C138.723423,142.587782 135.344947,141.345719 131.511935,138.807722 L122,132.058409 L122.131693,131.896321 C122.098422,131.863381 122.065627,131.829706 122.033328,131.795295 C121.921955,131.6765 121.819671,131.552332 121.726434,131.423616 C98.5588866,113.751455 83.3914452,102.593884 77.1850574,94.8065577 C76.8538188,94.4743444 76.5626265,94.1292325 76.3206891,93.7782842 C76.1211585,93.488844 75.9181877,93.1481413 75.7121343,92.7595068 C74.8356621,91.3761935 74.293488,90.1094391 74.0906985,88.9338712 C68.503139,73.3910602 61.5015769,32.2153174 59,20.4853484 C59,20.4853484 72.6925289,16.7341224 80.5307337,16 Z" opacity="1.00"></path>
                            <path id="shadow--globalStyle1/people/man/top/4" fill="#000" fill-opacity=".04" d="M80.5307337,16 C80.9607323,21.0104749 89.0229727,67.3505352 91.295324,81.2076888 C95.2487622,85.1973121 104.236446,96.7691352 128,125.880982 L128,125.880982 L127.831378,126.067907 C127.87743,126.112328 127.922601,126.158131 127.966839,126.205317 L128.038,126.286 L136.481187,128.376456 L143.280787,129.486216 L149.174412,133.983788 C149.632718,134.353498 149.414221,134.624142 149.319474,134.610969 C147.308048,134.342212 145.823946,133.703986 144.062975,132.352217 C141.755003,132.714193 140.207307,131.370556 140.389959,133.514115 C140.410481,133.765805 143.633816,135.697656 147.197939,136.784314 C147.703507,136.938124 150.105019,137.865622 150.410388,137.961051 C152.16217,138.513974 152.466663,138.506307 153.760304,138.686556 C154.158209,138.742472 154.618261,138.988356 155.139601,139.426422 C155.213932,139.489743 155.272926,139.564718 155.30672,139.643795 C155.400532,139.858673 155.292052,140.039615 155.063885,140.048335 C154.551691,140.066488 153.992825,140.065457 153.388919,140.042298 C152.504911,140.010828 149.826888,139.551927 147.58613,138.916617 C146.069165,138.486331 144.182363,137.970851 143.946857,137.97947 C143.581162,137.991485 146.532309,139.086008 148.815329,140.163161 C151.097492,141.242528 152.879661,140.747227 155.153475,140.986229 C155.466792,141.017989 156.001222,141.2471 156.757706,141.669867 C156.798343,141.691934 157.126625,141.996073 156.946305,142.174541 C156.764435,142.35447 154.018565,142.653305 152.488399,142.618859 C149.937918,142.560705 149.458406,142.334576 148.341142,141.888293 C146.950156,141.332186 144.437801,140.443208 143.740149,140.230387 C143.042498,140.017565 146.639413,142.046527 149.499915,142.948463 C149.944495,143.089566 150.891456,143.256878 151.325875,143.342962 C152.629132,143.601214 154.45437,143.427626 154.963424,143.888513 C155.036898,143.954046 155.100295,144.029082 155.150317,144.106899 C155.380753,144.466793 155.279995,144.825829 154.925022,144.909187 C154.003847,145.12342 152.702213,145.152937 151.018569,144.9992 C150.62322,144.963343 149.073573,144.777339 148.5401,144.583839 C146.284199,143.771816 143.64311,142.29222 143.354714,142.314201 C143.067093,142.33545 144.689664,143.03269 146.617377,144.001119 C147.05673,144.222986 148.912631,144.937534 149.251151,145.097199 C149.699195,145.308062 150.037235,145.383917 150.836001,145.667103 C152.429905,146.232682 152.387092,146.923276 151.418582,146.998175 C150.449296,147.073805 143.367356,144.780985 140.366577,143.363917 C138.723423,142.587782 135.344947,141.345719 131.511935,138.807722 L122,132.058409 L122.131693,131.896321 C122.098422,131.863381 122.065627,131.829706 122.033328,131.795295 C121.921955,131.6765 121.819671,131.552332 121.726434,131.423616 C98.5588866,113.751455 83.3914452,102.593884 77.1850574,94.8065577 C76.8538188,94.4743444 76.5626265,94.1292325 76.3206891,93.7782842 C76.1211585,93.488844 75.9181877,93.1481413 75.7121343,92.7595068 C74.8356621,91.3761935 74.293488,90.1094391 74.0906985,88.9338712 C68.503139,73.3910602 61.5015769,32.2153174 59,20.4853484 C59,20.4853484 72.6925289,16.7341224 80.5307337,16 Z"></path>
                            <path id="[clothes]tshirt--globalStyle1/people/man/top/4" fill="#fea770" d="M68.9184407,10.2227109 L68.9184407,10.2227109 C77.5377711,10.2073281 84.5132841,17.5982407 84.4443127,26.6751089 L84.2603891,51.1654853 L53.4448198,51.2227109 L53.4448198,26.5463511 C53.4448198,17.5421155 60.3680817,10.2392424 68.9184407,10.2227109" transform="rotate(-8 68.945 30.723)" opacity="1.00"></path>
                            <path id="shadow--globalStyle1/people/man/top/4" fill="#000" fill-opacity=".04" d="M68.9184407,10.2227109 L68.9184407,10.2227109 C77.5377711,10.2073281 84.5132841,17.5982407 84.4443127,26.6751089 L84.2603891,51.1654853 L53.4448198,51.2227109 L53.4448198,26.5463511 C53.4448198,17.5421155 60.3680817,10.2392424 68.9184407,10.2227109" transform="rotate(-8 68.945 30.723)"></path>
                            <path id="[clothes]tshirt--globalStyle1/people/man/top/4" fill="#fea770" d="M57.7875497,9.94629295 C57.7875497,9.94629295 45.792292,0 40.3357812,0 C10.6456072,0 2.22735914,22.5541551 3.05446364,54.7495357 C3.15576305,58.6783386 3.59229043,74.7532752 4.8559223,104.005846 C5.19428323,111.840698 5.5650182,136.605436 5.94515209,144.401282 C7.37065416,173.588842 82.8658704,161.050479 81.3797975,131.805492 C81.0727663,125.76168 82.210035,92.1316728 83.6668668,55.4288957 C84.051178,45.737993 84.6882155,25.2596766 81.6680309,17.0802687 C77.6129214,6.09565644 64.3687463,2.59775747 58.4672721,1.73203394 C58.0141238,7.20820661 57.7875497,9.94629295 57.7875497,9.94629295 Z" opacity="1.00"></path>
                            <path id="Fill-28--globalStyle1/people/man/top/4" fill="#5BE8CB" d="M112.821074,103.426344 L105.539042,103.426344 L105.539042,85.0595476 L112.821074,85.0595476 L112.821074,79.0910755 L133.757545,79.0910755 L133.757545,107.558442 L112.821074,107.558442 L112.821074,103.426344 Z M108.26993,100.671274 L112.821074,100.671274 L112.821074,87.814618 L108.26993,87.814618 L108.26993,100.671274 Z"></path>
                            <path id="[skin]hand--globalStyle1/people/man/top/4" fill="#c3786f" d="M21.4622947,17.0019206 C28.967284,16.8721215 35.0878678,23.3382778 34.9990453,31.2906331 C34.8208376,47.1794121 34.8907291,72.3845811 34.8000793,84.827092 C43.4441348,85.9476523 58.8904915,88.2853732 86,92.2966237 L86,92.2966237 L85.989,92.496 L95.8520737,90.3714585 L102.419384,87.4992737 L104.511573,87.3637508 L105.539042,87.6269519 L105.539042,89.3083659 C105.539042,89.3083659 100.929197,90.8902232 102.275724,92.5028797 C102.443327,92.7018736 106.384853,92.522434 110.123431,91.4400447 C110.655885,91.2859107 113.011451,92.4246624 110.690089,93.1447215 C109.115531,93.6312791 108.201125,94.1247381 107.999317,94.2627686 C107.690334,94.4778662 107.575178,94.6343008 110.195261,94.2627686 C112.816484,93.8923868 111.924881,95.6246697 110.690089,95.8754251 C109.153157,96.1859937 109.877157,96.0583155 109.145175,96.2699623 C108.616142,96.4240964 108.866977,96.6668 111.220263,96.2699623 C111.855331,96.1641389 112.515482,97.4650765 111.607917,98.1000168 C111.227104,98.3668758 110.628521,98.1172706 110.036779,98.2368971 C108.036942,98.6440871 108.973012,98.5014555 111.220263,98.2368971 C111.538367,98.1989387 112.307974,99.4251097 111.220263,100.157822 C110.557831,100.605271 109.359525,100.606421 108.056325,100.790461 C106.169363,101.058471 102.499195,101.906208 97.6706256,101.91656 L86.0194527,100.973709 C85.6142144,101.015361 85.1957931,101.008331 84.7732677,100.94683 C84.5712824,100.917429 84.3746497,100.876501 84.1840829,100.824925 L83.7709598,100.790461 L83.7844034,100.69811 C83.7728312,100.693878 83.7612856,100.689606 83.749767,100.685294 C37.5255039,107.857834 20.3224197,107.870571 17.1131369,100.113236 C16.7612174,99.1761596 16.4979688,98.2677784 16.3160763,97.3914893 C16.0085276,96.8565909 15.7924598,96.3267303 15.6867913,95.8245596 C14.0318345,87.9630636 9.28340496,53.3326759 8.02661787,32.039141 C7.55187701,23.9894363 13.4866482,17.1533528 21.0978162,17.0084105 C21.219309,17.0062472 21.3408018,17.0040839 21.4622947,17.0019206 Z M108.230506,88.1522133 L109.037383,88.4672527 C109.037383,88.4672527 110.630988,88.8452999 110.946284,89.1623719 C111.260573,89.4794438 109.373833,89.8259871 108.487377,89.6522133 C107.600921,89.4794438 108.230506,88.1522133 108.230506,88.1522133 Z" opacity="1.00"></path>
                            <ellipse id="Oval--globalStyle1/people/man/top/4" cx="123.427" cy="93.325" fill="#FFF" rx="6.95" ry="7.011"></ellipse>
                            <path id="[clothes]tshirt--globalStyle1/people/man/top/4" fill="#fea770" d="M21.4736209,14 L21.4736209,14 C30.0929513,13.9846171 37.0684643,21.3755297 36.9994929,30.4523979 L36.8155693,54.9427744 L6,55 L6,30.3236402 C6,21.3194045 12.9232619,14.0165314 21.4736209,14" opacity="1.00"></path>
                            <path id="shadow--globalStyle1/people/man/top/4" fill="#000" fill-opacity=".04" d="M21.4736209,14 L21.4736209,14 C30.0929513,13.9846171 37.0684643,21.3755297 36.9994929,30.4523979 L36.8155693,54.9427744 L6,55 L6,30.3236402 C6,21.3194045 12.9232619,14.0165314 21.4736209,14"></path>
                        </g>
                    </g>
                </svg></g>
        </g>
    </g>
</svg>