<svg xmlns="http:/<svg xmlns=" http://www.w3.org/2000/svg" width="286" height="250" viewBox="0 0 286 250">
    <g id="Symbols--globalStyle1/people/woman/bottom/4" fill="none" fill-rule="evenodd" stroke="none" stroke-width="1">
        <g id="globalStyle1/people/woman/bottom/4--globalStyle1/people/woman/bottom/4">
            <path id="[skin]leg---globalStyle1/people/woman/bottom/4" fill="#f0a19e" d="M144.1521,15.3267653 C157.0721,15.3048 167.5651,25.7598 167.587135,38.6798 C167.589914,40.3145683 167.424959,41.9104647 167.108498,43.4511983 L149.343976,136.128686 C149.316087,136.298914 149.283706,136.467636 149.246958,136.634726 L148.8315,138.7977 L148.7635,138.775731 L133.269269,233.575153 C129.452441,232.783893 127.690729,232.415741 127.267258,232.556486 L127.231457,232.571174 C127.231457,232.571174 127.517232,213.396718 130.27291,133.129484 L130.27291,133.129484 L130.431782,133.157219 C130.43198,133.155883 130.432177,133.154547 130.432376,133.153211 L130.3245,133.1207 L120.7615,40.3067 L120.853302,40.3107808 C120.818912,39.7988014 120.80099,39.2822997 120.800062,38.7618 C120.7771,25.8418 131.2331,15.3498 144.1521,15.3267653 Z" opacity="1.00"></path>
            <path id="[skin]leg---globalStyle1/people/woman/bottom/4" fill="#f0a19e" d="M169.75,17.7076667 C181.999,17.6867 191.947,27.5987 191.968033,39.8477 C191.972429,42.4158946 191.540175,44.882894 190.741282,47.1784385 L175.945825,136.996972 C175.901716,137.712021 175.774125,138.404515 175.572669,139.064816 L159.809455,240.146601 L154.620861,244.322382 L154.031776,237.589102 C154.031776,237.589102 158.132534,150.506794 157.990803,137.202146 C157.968678,136.957812 157.957549,136.704463 157.957085,136.4486 C157.956895,136.343294 157.958514,136.238406 157.961914,136.133965 C157.961068,136.102335 157.959624,136.07651 157.958133,136.051517 C157.979569,135.700539 158.01431,135.354539 158.068063,135.01484 L149.089428,47.8663049 C148.138919,45.4019069 147.615771,42.7248233 147.610963,39.9257 C147.589,27.6767 157.501,17.7287 169.75,17.7076667 Z" opacity="1.00"></path>
            <path id="Fill-15--globalStyle1/people/woman/bottom/4" fill="#E9E9E9" d="M153.489405,221.7623 L153.489405,247.2283 L180.248405,247.2103 C180.170405,245.5713 180.012405,244.6423 176.828405,244.5793 C172.051405,244.4873 160.532405,245.0063 160.529405,240.4463 C160.528405,239.4733 162.409405,233.7153 164.902405,223.0983 L153.489405,221.7623 Z"></path>
            <path id="Fill-15-Copy--globalStyle1/people/woman/bottom/4" fill="#E9E9E9" d="M125.5,221.7623 L125.5,247.2283 L152.259,247.2103 C152.181,245.5713 152.023,244.6423 148.839,244.5793 C144.062,244.4873 132.543,245.0063 132.54,240.4463 C132.539,239.4733 134.42,233.7153 136.913,223.0983 L125.5,221.7623 Z"></path>
            <path id="shadow--globalStyle1/people/woman/bottom/4" fill="#000" fill-opacity=".04" d="M153.489405,221.7623 L153.489405,247.2283 L180.248405,247.2103 C180.170405,245.5713 180.012405,244.6423 176.828405,244.5793 C172.051405,244.4873 160.532405,245.0063 160.529405,240.4463 C160.528405,239.4733 162.409405,233.7153 164.902405,223.0983 L153.489405,221.7623 Z"></path>
            <path id="shape--globalStyle1/people/woman/bottom/4" fill="#6B8FFF" d="M153.489405 249.0396L180.248405 249.0396 180.248405 247.1556C180.248405 247.1556 171.010405 247.1406 153.489405 247.1556L153.489405 249.0396zM125.5 249.0396L152.259 249.0396 152.259 247.1556C152.259 247.1556 143.021 247.1406 125.5 247.1556L125.5 249.0396z"></path>
            <polygon id="[clothes]pants--globalStyle1/people/woman/bottom/4" fill="#294b67" points="196.775642 15.3267308 169.688473 225.409031 149.949973 225.409031 147.610927 15.3267308" opacity="1.00"></polygon>
            <polygon id="shadow--globalStyle1/people/woman/bottom/4" fill="#000" fill-opacity=".02" points="196.775642 15.3267308 169.688473 225.409031 149.949973 225.409031 147.610927 15.3267308"></polygon>
            <polygon id="[clothes]pants--globalStyle1/people/woman/bottom/4" fill="#294b67" points="167.587169 15.3267308 140.5 225.409031 120.7615 225.409031 118.422454 15.3267308" opacity="1.00"></polygon>
        </g>
    </g>
</svg>