<?xml version="1.0" encoding="iso-8859-1"?>
<!-- Generator: Adobe Illustrator 19.0.0, SVG Export Plug-In . SVG Version: 6.00 Build 0)  -->
<svg version="1.1" id="Layer_1" xmlns="http://www.w3.org/2000/svg" xmlns:xlink="http://www.w3.org/1999/xlink" x="0px" y="0px"
	 viewBox="0 0 392.67 392.67" style="enable-background:new 0 0 392.67 392.67;" xml:space="preserve">
<g>
	<path style="fill:#194F82;" d="M196.3,211.398c11.636,0,21.204,9.503,21.204,21.269c0,6.012,4.848,10.925,10.925,10.925
		s10.925-4.848,10.925-10.925c0-19.911-13.705-36.719-32.065-41.568v-10.149c0-6.012-4.848-10.925-10.925-10.925
		s-10.925,4.848-10.925,10.925v10.149c-18.36,4.848-32.065,21.657-32.065,41.568c0,23.725,20.881,42.861,44.606,42.861
		c-0.388,0.065,0,0,0.065,0c10.925,0.84,19.394,10.02,19.394,21.204c0,11.766-9.503,21.269-21.204,21.269
		c-11.701,0-21.204-9.503-21.204-21.269c0-6.012-4.848-10.925-10.925-10.925c-6.012,0-10.925,4.848-10.925,10.925
		c0,19.911,13.705,36.719,32.065,41.568v10.02c0,6.012,4.848,10.925,10.925,10.925c6.077,0,10.925-4.848,10.925-10.925v-10.02
		c18.36-4.848,32.065-21.657,32.065-41.568c0-23.725-19.265-43.055-42.99-43.055c0.388-0.065,0,0-0.065,0
		c-10.925-0.84-21.01-9.891-21.01-21.01C175.096,220.901,184.664,211.398,196.3,211.398z"/>
	<path style="fill:#194F82;" d="M387.33,113.976L201.924,1.62c-3.491-2.069-7.822-2.069-11.313,0L5.27,113.976
		c-4.202,2.521-6.206,7.564-4.848,12.283s5.624,7.951,10.537,7.951h7.758v28.509c0,6.012,4.848,10.925,10.925,10.925h9.503v158.384
		h-9.503c-6.012,0-10.925,4.848-10.925,10.925v38.723c0,6.012,4.848,10.925,10.925,10.925h85.851
		c6.012,0,10.925-4.848,10.925-10.925v-38.723c0-6.012-4.848-10.925-10.925-10.925h-9.568V173.644h9.503
		c6.012,0,10.925-4.848,10.925-10.925V134.21h139.895v28.509c0,6.012,4.848,10.925,10.925,10.925h9.632v158.384h-9.503
		c-6.012,0-10.925,4.848-10.925,10.925v38.723c0,6.012,4.848,10.925,10.925,10.925h85.851c6.012,0,10.925-4.848,10.925-10.925
		v-38.723c0-6.012-4.848-10.925-10.925-10.925h-9.503V173.644h9.503c6.012,0,10.925-4.848,10.925-10.925V134.21h7.758
		c4.848,0,9.18-3.232,10.537-7.952C393.472,121.539,391.468,116.497,387.33,113.976z M104.567,370.816H40.502v-16.937h64.065
		V370.816z M60.93,332.028V173.644h23.208v158.384H60.93z M104.567,151.794H40.502v-16.873h64.065V151.794z M49.941,112.424
		L196.3,23.729l146.36,88.695H49.941z M352.098,370.816h-64.065v-16.937h64.065V370.816z M308.526,332.028V173.644h23.208v158.384
		H308.526z M352.098,151.794h-64.065v-16.873h64.065V151.794z"/>
</g>
<polygon style="fill:#FFC10D;" points="49.941,112.424 342.66,112.424 196.3,23.729 "/>
<g>
	<rect x="40.502" y="134.921" style="fill:#FFFFFF;" width="64.065" height="16.937"/>
	<rect x="288.033" y="134.921" style="fill:#FFFFFF;" width="64.065" height="16.937"/>
	<rect x="40.502" y="353.879" style="fill:#FFFFFF;" width="64.065" height="16.937"/>
	<rect x="288.033" y="353.879" style="fill:#FFFFFF;" width="64.065" height="16.937"/>
</g>
<g>
	<rect x="308.526" y="173.644" style="fill:#56ACE0;" width="23.208" height="158.384"/>
	<rect x="60.93" y="173.644" style="fill:#56ACE0;" width="23.208" height="158.384"/>
</g>
<g>
</g>
<g>
</g>
<g>
</g>
<g>
</g>
<g>
</g>
<g>
</g>
<g>
</g>
<g>
</g>
<g>
</g>
<g>
</g>
<g>
</g>
<g>
</g>
<g>
</g>
<g>
</g>
<g>
</g>
</svg>
