<?xml version="1.0" encoding="iso-8859-1"?>
<!-- Generator: Adobe Illustrator 19.0.0, SVG Export Plug-In . SVG Version: 6.00 Build 0)  -->
<svg version="1.1" id="Layer_1" xmlns="http://www.w3.org/2000/svg" xmlns:xlink="http://www.w3.org/1999/xlink" x="0px" y="0px"
	 viewBox="0 0 496 496" style="enable-background:new 0 0 496 496;" xml:space="preserve">
<path style="fill:#8EA5A4;" d="M496,476.8c0,10.4-8.8,19.2-19.2,19.2H19.2C8.8,496,0,487.2,0,476.8V19.2C0,8.8,8.8,0,19.2,0h457.6
	C487.2,0,496,8.8,496,19.2V476.8z"/>
<path style="fill:#FDFFFF;" d="M16,80v381.6C16,472,23.2,480,32.8,480h430.4c9.6,0,16.8-8,16.8-18.4V80H16z"/>
<path style="fill:#E8EFEF;" d="M463.2,480c9.6,0,16.8-8,16.8-18.4V80H16"/>
<rect x="16" y="80" style="fill:#DCE5E5;" width="464" height="24"/>
<path style="fill:#FDFFFF;" d="M395.2,40c0,9.6-8,16-17.6,16H32c-9.6,0-8-6.4-8-16l0,0c0-9.6-1.6-16,8-16h345.6
	C387.2,24,395.2,30.4,395.2,40L395.2,40z"/>
<path style="fill:#E6EFEF;" d="M24,40.8L24,40.8c0-9.6-1.6-16.8,8-16.8h345.6c9.6,0,17.6,7.2,17.6,16.8l0,0"/>
<circle style="opacity:0.4;fill:#B1BCBC;enable-background:new    ;" cx="426.4" cy="41.6" r="8.8"/>
<circle style="fill:#FFFFFF;" cx="426.4" cy="37.6" r="8.8"/>
<path style="fill:#E8EFEE;" d="M420,31.2c3.2-3.2,9.6-3.2,12.8,0c3.2,3.2,3.2,9.6,0,12.8"/>
<circle style="opacity:0.4;fill:#B1BCBC;enable-background:new    ;" cx="462.4" cy="41.6" r="8.8"/>
<circle style="fill:#FFFFFF;" cx="462.4" cy="37.6" r="8.8"/>
<path style="fill:#E8EFEE;" d="M456,31.2c3.2-3.2,9.6-3.2,12.8,0c3.2,3.2,3.2,9.6,0,12.8"/>
<path style="fill:#8EA5A4;" d="M100.8,32l-0.8-0.8h-2.4c-0.8,0-0.8,0-0.8,0.8l-1.6,6.4l0,0l0,0L92.8,32c-0.8,0-0.8,0-1.6,0h-2.4
	C88,32,88,32,88,32.8L85.6,40l0,0l0,0L84,33.6c0-1.6,0-1.6-0.8-1.6h-2.4H80h-0.8h-2.4C76,32,76,32,76,32.8l-1.6,6.4l0,0l0,0L72,32.8
	c0-0.8-0.8-0.8-1.6-0.8h-1.6c-0.8,0-0.8,0-1.6,0.8l-1.6,6.4l0,0l0,0l-2.4-6.4c0-0.8,0-0.8-0.8-0.8H60h-0.8c0,0,0,0-0.8,0H56
	c0,0-0.8,0-0.8,0.8l-1.6,6.4l0,0l0,0l-2.4-6.4c0-0.8-0.8-0.8-1.6-0.8H48c-0.8,0-0.8,0-0.8,0.8l-2.4,6.4l0,0l0,0l-1.6-6.4
	C42.4,32,42.4,32,41.6,32h-2.4c0,0-0.8,0-0.8,0.8v0.8l4,13.6c0,0.8,0.8,0.8,0.8,0.8h2.4c0.8,0,0.8,0,0.8-0.8l2.4-7.2c0,0,0,0,0-0.8
	c0,0,0,0,0,0.8l2.4,6.4c0,0.8,0.8,0.8,0.8,0.8h2.4c0.8,0,0.8,0,0.8-0.8l4-12l3.2,12c0,0.8,0.8,0.8,0.8,0.8h2.4c0.8,0,0.8,0,0.8-0.8
	l3.2-6.4c0,0,0,0,0-0.8c0,0,0,0,0,0.8l2.4,6.4c0,0.8,0.8,0.8,0.8,0.8h2.4c0.8,0,0.8,0,0.8-0.8l4-12l3.2,12c0,0.8,0.8,0.8,0.8,0.8
	h2.4c0.8,0,0.8,0,0.8-0.8l3.2-6.4c0,0,0,0,0-0.8c0,0,0,0,0,0.8l2.4,6.4c0,0.8,0.8,0.8,0.8,0.8H96c0.8,0,0.8,0,0.8-0.8l4-13.6
	C101.6,32.8,101.6,32,100.8,32z"/>
<polygon style="fill:#DCE5E5;" points="181.6,256 179.2,208 371.2,208 376.8,152 119.2,152 126.4,312 298.4,312 290.4,367.2 
	247.2,388.8 192,361.6 192,336 136,336 136,397.6 248.8,453.6 342.4,405.6 366.4,256 "/>
<polygon style="fill:#F74000;" points="181.6,240 179.2,192 371.2,192 376.8,136 119.2,136 126.4,296 298.4,296 290.4,352 
	247.2,374.4 192,348 192,320 136,320 136,383.2 248.8,440 342.4,391.2 366.4,240 "/>
<g>
	<polygon style="fill:#D31D05;" points="345.6,374.4 366.4,240 195.2,240 260,296 298.4,296 293.6,327.2 	"/>
	<polygon style="fill:#D31D05;" points="120.8,172 180.8,225.6 179.2,192 371.2,192 376.8,136 119.2,136 	"/>
</g>
<g>
</g>
<g>
</g>
<g>
</g>
<g>
</g>
<g>
</g>
<g>
</g>
<g>
</g>
<g>
</g>
<g>
</g>
<g>
</g>
<g>
</g>
<g>
</g>
<g>
</g>
<g>
</g>
<g>
</g>
</svg>
