<?xml version="1.0" encoding="iso-8859-1"?>
<!-- Generator: Adobe Illustrator 19.0.0, SVG Export Plug-In . SVG Version: 6.00 Build 0)  -->
<svg version="1.1" id="Layer_1" xmlns="http://www.w3.org/2000/svg" xmlns:xlink="http://www.w3.org/1999/xlink" x="0px" y="0px"
	 viewBox="0 0 512.003 512.003" style="enable-background:new 0 0 512.003 512.003;" xml:space="preserve">
<rect x="40.195" y="404.09" style="fill:#F4B2B0;" width="139.071" height="93.519"/>
<path style="fill:#B3404A;" d="M332.736,512c-7.946,0-14.388-6.443-14.388-14.388v-93.519c0-7.945,6.441-14.388,14.388-14.388
	s14.388,6.443,14.388,14.388v93.519C347.123,505.559,340.682,512,332.736,512z"/>
<rect x="332.728" y="404.09" style="fill:#F4B2B0;" width="139.071" height="93.519"/>
<path style="fill:#B3404A;" d="M471.806,389.705h-6.539V278.891c0-7.945-6.441-14.388-14.388-14.388H333.498l-12.625-43.779
	c-2.203-7.637-10.178-12.037-17.81-9.838c-7.635,2.201-12.04,10.175-9.837,17.81l10.326,35.806H210.1l25.744-85.753
	c2.083-6.938-1.318-14.344-7.939-17.285c-25.042-11.123-41.223-35.999-41.223-63.37c-0.001-38.222,31.096-69.319,69.319-69.319
	s69.322,31.097,69.322,69.322c0,27.371-16.182,52.246-41.223,63.37c-7.261,3.226-10.533,11.726-7.309,18.989
	c3.226,7.261,11.727,10.533,18.99,7.307c35.427-15.737,58.317-50.932,58.317-89.666C354.098,44.006,310.092,0,256.001,0
	s-98.096,44.006-98.096,98.098c0,34.427,18.079,66.058,46.974,83.716l-24.824,82.693H61.124c-7.946,0-14.388,6.443-14.388,14.388
	v110.815h-6.539c-7.946,0-14.388,6.443-14.388,14.388v93.519c0,7.945,6.441,14.388,14.388,14.388h139.071h76.733
	c7.946,0,14.388-6.443,14.388-14.388c0-7.945-6.441-14.388-14.388-14.388h-62.346v-79.132c0-7.945-6.441-14.388-14.388-14.388
	h-6.755l28.948-96.427h110.389l27.808,96.427h-6.922c-7.946,0-14.388,6.443-14.388,14.388v93.519
	c0,7.945,6.441,14.388,14.388,14.388h139.071c7.946,0,14.388-6.443,14.388-14.388v-93.519
	C486.194,396.148,479.752,389.705,471.806,389.705z M54.584,418.481H164.88v64.744H54.584
	C54.584,483.225,54.584,418.481,54.584,418.481z M142.468,389.705H75.511v-96.427h95.905L142.468,389.705z M341.797,293.28h94.695
	v96.427h-66.888L341.797,293.28z M457.418,483.225H347.123v-64.744h110.295V483.225z"/>
<g>
</g>
<g>
</g>
<g>
</g>
<g>
</g>
<g>
</g>
<g>
</g>
<g>
</g>
<g>
</g>
<g>
</g>
<g>
</g>
<g>
</g>
<g>
</g>
<g>
</g>
<g>
</g>
<g>
</g>
</svg>
