<?xml version="1.0" encoding="iso-8859-1"?>
<!-- Generator: Adobe Illustrator 19.0.0, SVG Export Plug-In . SVG Version: 6.00 Build 0)  -->
<svg version="1.1" id="Layer_1" xmlns="http://www.w3.org/2000/svg" xmlns:xlink="http://www.w3.org/1999/xlink" x="0px" y="0px"
	 viewBox="0 0 512 512" style="enable-background:new 0 0 512 512;" xml:space="preserve">
<circle style="fill:#273B7A;" cx="256" cy="256" r="256"/>
<path style="fill:#121149;" d="M287.341,510.088C398.102,496.566,487,412.313,507.514,303.866L313.316,111.478l-18.741,74.15
	l-69.063-69.063L170.38,295.65l17.686,17.686l-43.322,54.156L287.341,510.088z"/>
<path style="fill:#E09112;" d="M219.367,369.778h-68.956c-4.522,0-8.189-3.667-8.189-8.189V121.966c0-4.522,3.667-8.189,8.189-8.189
	h68.956c4.522,0,8.189,3.667,8.189,8.189v239.623C227.556,366.111,223.889,369.778,219.367,369.778z"/>
<path style="fill:#FF5419;" d="M219.367,113.778h-34.621v256h34.621c4.522,0,8.189-3.667,8.189-8.189V121.966
	C227.556,117.445,223.889,113.778,219.367,113.778z"/>
<circle style="fill:#C92F00;" cx="184.889" cy="327.111" r="14.222"/>
<rect x="160.754" y="133.172" style="fill:#FEE187;" width="48.269" height="142.222"/>
<path style="fill:#71E2EF;" d="M358.803,359.915l-67.474,14.222c-4.425,0.933-8.768-1.898-9.7-6.323l-49.423-234.472
	c-0.933-4.425,1.898-8.768,6.323-9.7l67.474-14.222c4.425-0.933,8.768,1.898,9.7,6.323l49.421,234.472
	C366.059,354.638,363.229,358.983,358.803,359.915z"/>
<path style="fill:#38C6D9;" d="M365.127,350.213l-49.421-234.472c-0.933-4.425-5.275-7.256-9.7-6.323l-32.851,6.923l49.7,251.149
	l35.949-7.577C363.229,358.983,366.059,354.638,365.127,350.213z"/>
<circle style="fill:#02B2B2;" cx="316.268" cy="325.284" r="14.222"/>
<rect x="266.821" y="133.959" transform="matrix(0.9785 -0.2062 0.2062 0.9785 -36.0329 64.4026)" style="fill:#FFFFFF;" width="48.269" height="142.221"/>
<path style="fill:#930000;" d="M184.889,312.889c-0.048,0-0.095,0.007-0.143,0.007v28.431c0.048,0,0.095,0.007,0.143,0.007
	c7.854,0,14.222-6.368,14.222-14.222C199.111,319.257,192.743,312.889,184.889,312.889z"/>
<rect x="184.751" y="133.172" style="fill:#FFC61B;" width="24.273" height="142.222"/>
<path style="fill:#386895;" d="M319.2,339.192c7.685-1.62,12.603-9.164,10.983-16.849c-1.62-7.685-9.164-12.603-16.849-10.983
	c-0.515,0.109-1.017,0.248-1.507,0.409l5.477,27.677C317.933,339.401,318.566,339.327,319.2,339.192z"/>
<polygon style="fill:#D0D1D3;" points="329.216,269.693 299.884,130.529 276.92,135.37 304.53,274.897 "/>
<g>
</g>
<g>
</g>
<g>
</g>
<g>
</g>
<g>
</g>
<g>
</g>
<g>
</g>
<g>
</g>
<g>
</g>
<g>
</g>
<g>
</g>
<g>
</g>
<g>
</g>
<g>
</g>
<g>
</g>
</svg>
