<?xml version='1.0' encoding='utf-8'?>
<svg xmlns="http://www.w3.org/2000/svg" width="1446.39mm" height="1093.61mm" version="1.1" shape-rendering="geometricPrecision" text-rendering="geometricPrecision" image-rendering="optimizeQuality" fill-rule="evenodd" clip-rule="evenodd" viewBox="0 0 144668.01 109382.84"> <g id="Layer_x0020_1"> <metadata id="CorelCorpID_0Corel-Layer"/> <polygon fill="white" points="-0,109382.84 144668.01,109382.84 144668.01,0 -0,0 "/> <path fill="red" d="M14149.75 44482.22l3369.31 0 0 1811.6 -1690.57 0 0 1824.73 -1678.74 0 0 -3636.33zm29207.12 0l3369.41 0 0 3636.33 -1678.74 0 0 -1824.73 -1690.67 0 0 -1811.6zm3369.41 13927.63l0 3642.65 -3369.41 0 0 -1744.92 1690.67 0 0 -1897.73 1678.74 0zm-29207.22 3642.65l-3369.31 0 0 -3642.65 1678.74 0 0 1897.73 1690.57 0 0 1744.92z"/> <path fill="red" fill-rule="nonzero" d="M18218.31 57725.59l0 -8916.47 1889.92 0 0 7355.51 3617.4 0 0 1560.96 -5507.32 0zm7055.85 0l0 -8916.47 1889.82 0 0 8916.47 -1889.82 0zm9220.38 -8916.47l1908.67 0 -3030.5 8916.47 -2062.64 0 -3024.17 -8916.47 1908.57 0 1677.55 5305.4c93.71,314.26 189.49,678.54 289.31,1094.69 99.92,418.44 162.36,707.74 187.32,870.1 43.7,-374.63 195.7,-1028.21 455.81,-1964.79l1690.08 -5305.4zm8163.07 8916.47l-5134.65 0 0 -8916.47 5134.65 0 0 1548.53 -3244.83 0 0 1960.65 3017.96 0 0 1548.53 -3017.96 0 0 2297.8 3244.83 0 0 1560.96z"/> <polygon fill="red" points="59369.05,36878.32 89204.22,36878.32 89204.22,19307.94 59369.05,19307.94 "/> <path fill="red" d="M18147.19 19307.94l24581.65 0c3402.84,0 6186.94,2784.09 6186.94,6186.94l0 5328.98c0,3402.75 -2784.1,6186.94 -6186.94,6186.94l-24581.65 0c-3402.84,0 -6186.94,-2784.19 -6186.94,-6186.94l0 -5328.98c0,-3402.85 2784.1,-6186.94 6186.94,-6186.94z"/> <path fill="white" fill-rule="nonzero" d="M18218.31 32617.61l0 -8916.47 1889.92 0 0 7355.51 3617.4 0 0 1560.96 -5507.32 0zm7055.85 0l0 -8916.47 1889.82 0 0 8916.47 -1889.82 0zm9220.38 -8916.47l1908.67 0 -3030.5 8916.47 -2062.64 0 -3024.17 -8916.47 1908.57 0 1677.55 5305.3c93.71,314.36 189.49,678.54 289.31,1094.79 99.92,418.43 162.36,707.73 187.32,870.1 43.7,-374.63 195.7,-1028.21 455.81,-1964.89l1690.08 -5305.3zm8163.07 8916.47l-5134.65 0 0 -8916.47 5134.65 0 0 1548.43 -3244.83 0 0 1960.65 3017.96 0 0 1548.63 -3017.96 0 0 2297.8 3244.83 0 0 1560.96z"/> <path fill="white" fill-rule="nonzero" d="M62066.93 32617.61l0 -8916.47 1889.82 0 0 7355.51 3617.49 0 0 1560.96 -5507.31 0zm7055.84 0l0 -8916.47 1889.83 0 0 8916.47 -1889.83 0zm9220.39 -8916.47l1908.66 0 -3030.49 8916.47 -2062.64 0 -3024.17 -8916.47 1908.57 0 1677.55 5305.3c93.71,314.36 189.49,678.54 289.31,1094.79 99.92,418.43 162.36,707.73 187.32,870.1 43.7,-374.63 195.7,-1028.21 455.81,-1964.89l1690.08 -5305.3zm8163.17 8916.47l-5134.75 0 0 -8916.47 5134.75 0 0 1548.43 -3244.93 0 0 1960.65 3017.96 0 0 1548.63 -3017.96 0 0 2297.8 3244.93 0 0 1560.96z"/> <path fill="red" fill-rule="nonzero" d="M100987.74 32617.61l0 -8916.47 1889.92 0 0 7355.51 3618.08 0 0 1560.96 -5508 0zm7055.65 0l0 -8916.47 1889.92 0 0 8916.47 -1889.92 0zm9220.77 -8916.47l1908.67 0 -3030.2 8916.47 -2062.54 0 -3024.27 -8916.47 1908.67 0 1676.86 5305.3c93.71,314.36 189.39,678.54 290,1094.79 99.63,418.43 161.77,707.73 187.42,870.1 43.4,-374.63 195.3,-1028.21 455.71,-1964.89l1689.68 -5305.3zm8163.37 8916.47l-5135.14 0 0 -8916.47 5135.14 0 0 1548.43 -3245.22 0 0 1960.65 3018.35 0 0 1548.63 -3018.35 0 0 2297.8 3245.22 0 0 1560.96z"/> <path fill="red" d="M128743.78 17118.36c1918.53,-254.2 3679.24,1094.69 3933.73,3012.83 253.5,1918.03 -1094.89,3679.14 -3013.42,3933.33 -1917.54,254.19 -3679.24,-1094.7 -3932.74,-3012.83 -254.49,-1918.14 1093.9,-3679.14 3012.43,-3933.33z"/> <path fill="red" fill-rule="nonzero" d="M62066.93 57725.59l0 -8916.47 1889.82 0 0 7355.51 3617.49 0 0 1560.96 -5507.31 0zm7055.84 0l0 -8916.47 1889.83 0 0 8916.47 -1889.83 0zm9220.39 -8916.47l1908.66 0 -3030.49 8916.47 -2062.64 0 -3024.17 -8916.47 1908.57 0 1677.55 5305.4c93.71,314.26 189.49,678.54 289.31,1094.69 99.92,418.44 162.36,707.74 187.32,870.1 43.7,-374.63 195.7,-1028.21 455.81,-1964.79l1690.08 -5305.4zm8163.17 8916.47l-5134.75 0 0 -8916.47 5134.75 0 0 1548.53 -3244.93 0 0 1960.65 3017.96 0 0 1548.53 -3017.96 0 0 2297.8 3244.93 0 0 1560.96z"/> <polygon fill="red" points="59369.05,46506.09 89204.22,46506.09 89204.22,44482.22 59369.05,44482.22 "/> <polygon fill="red" points="59369.05,62052.5 89204.22,62052.5 89204.22,60028.66 59369.05,60028.66 "/> <path fill="red" fill-rule="nonzero" d="M99311.86 44058.75l30258.52 0 0 18417.2 -30681.68 0 0 -18417.2 423.17 0zm29412.2 846.92l-28989.04 0 0 16723.37 28989.04 0 0 -16723.37z"/> <path fill="red" fill-rule="nonzero" d="M102009.64 57725.59l0 -8916.47 1889.92 0 0 7355.51 3617.09 0 0 1560.96 -5507.02 0zm7055.65 0l0 -8916.47 1889.92 0 0 8916.47 -1889.92 0zm9220.78 -8916.47l1908.66 0 -3030.19 8916.47 -2062.55 0 -3024.27 -8916.47 1908.67 0 1676.87 5305.4c93.7,314.26 189.38,678.54 290,1094.69 99.62,418.44 161.76,707.74 187.41,870.1 43.4,-374.63 195.31,-1028.21 455.71,-1964.79l1689.69 -5305.4zm8163.37 8916.47l-5135.15 0 0 -8916.47 5135.15 0 0 1548.53 -3245.23 0 0 1960.65 3018.35 0 0 1548.53 -3018.35 0 0 2297.8 3245.23 0 0 1560.96z"/> <path fill="red" d="M20312.52 68223.75l20250.99 0c4593.72,0 8352.27,3758.54 8352.27,8352.26l0 998.33c0,4593.71 -3758.54,8352.26 -8352.27,8352.26l-20250.99 0c-4593.82,0 -8352.27,-3758.54 -8352.27,-8352.26l0 -998.33c0,-4593.71 3758.44,-8352.26 8352.27,-8352.26z"/> <path fill="white" fill-rule="nonzero" d="M18218.31 81533.42l0 -8916.48 1889.92 0 0 7355.51 3617.4 0 0 1560.97 -5507.32 0zm7055.85 0l0 -8916.48 1889.82 0 0 8916.48 -1889.82 0zm9220.38 -8916.48l1908.67 0 -3030.5 8916.48 -2062.64 0 -3024.17 -8916.48 1908.57 0 1677.55 5305.4c93.71,314.27 189.49,678.45 289.31,1094.8 99.92,418.33 162.36,707.63 187.32,870 43.7,-374.64 195.7,-1028.22 455.81,-1964.8l1690.08 -5305.4zm8163.07 8916.48l-5134.65 0 0 -8916.48 5134.65 0 0 1548.53 -3244.83 0 0 1960.65 3017.96 0 0 1548.53 -3017.96 0 0 2297.8 3244.83 0 0 1560.97z"/> <polygon fill="red" points="19810.15,92294.74 31569.2,85505.71 19810.15,83098.23 "/> <path fill="red" d="M61995.81 69523.91l24581.64 0c3402.75,0 6186.95,2784.2 6186.95,6186.95l0 5328.97c0,3402.75 -2784.2,6186.94 -6186.95,6186.94l-24581.64 0c-3402.85,0 -6186.94,-2784.19 -6186.94,-6186.94l0 -5328.97c0,-3402.75 2784.09,-6186.95 6186.94,-6186.95z"/> <path fill="white" fill-rule="nonzero" d="M69918.7 81364.74l0 -5978.8 1267.22 0 0 4932.05 2425.53 0 0 1046.75 -3692.75 0zm4731.12 0l0 -5978.8 1267.22 0 0 5978.8 -1267.22 0zm6182.51 -5978.8l1279.74 0 -2031.96 5978.8 -1383.02 0 -2027.82 -5978.8 1279.74 0 1124.89 3557.41c62.73,210.69 126.95,455.02 194.02,734.07 66.87,280.54 108.8,474.56 125.57,583.36 29.3,-251.24 131.19,-689.39 305.58,-1317.43l1133.27 -3557.41zm5473.58 5978.8l-3443 0 0 -5978.8 3443 0 0 1038.37 -2175.78 0 0 1314.66 2023.67 0 0 1038.28 -2023.67 0 0 1540.74 2175.78 0 0 1046.75z"/> <path fill="white" d="M64621.78 75714.5c1469.53,-194.82 2818.71,838.62 3013.42,2308.15 194.81,1469.63 -838.63,2818.81 -2308.16,3013.52 -1469.52,194.71 -2818.7,-838.63 -3013.42,-2308.25 -194.81,-1469.53 838.63,-2818.71 2308.16,-3013.42z"/> <path fill="red" fill-rule="nonzero" d="M101938.61 69100.55l24581.84 0c1817.92,0 3471.12,743.54 4668.59,1941.41 1198.46,1197.97 1941.21,2850.67 1941.21,4668.89l0 5328.97c0,1818.31 -742.75,3470.92 -1941.21,4668.88 -1197.47,1197.87 -2850.67,1941.41 -4668.59,1941.41l-24581.84 0c-1817.92,0 -3470.91,-743.54 -4668.78,-1941.41 -1197.97,-1197.96 -1941.51,-2850.57 -1941.51,-4668.88l0 -5328.97c0,-1818.22 743.54,-3470.92 1941.51,-4668.89 1197.87,-1197.87 2850.86,-1941.41 4668.78,-1941.41zm24581.84 846.82l-24581.84 0c-1584.14,0 -3025.25,648.55 -4070.04,1693.33 -1044.89,1044.88 -1693.44,2485.71 -1693.44,4070.15l0 5328.97c0,1584.54 648.55,3025.25 1693.44,4070.15 1044.78,1044.78 2485.9,1693.33 4070.04,1693.33l24581.84 0c1584.14,0 3025.26,-648.55 4069.85,-1693.33 1044.59,-1044.89 1693.63,-2485.61 1693.63,-4070.15l0 -5328.97c0,-1584.44 -649.04,-3025.26 -1693.63,-4070.15 -1044.58,-1044.78 -2485.71,-1693.33 -4069.85,-1693.33z"/> <path fill="red" fill-rule="nonzero" d="M108894.65 81364.74l0 -5978.8 1267.51 0 0 4932.05 2425.53 0 0 1046.75 -3693.04 0zm4730.73 0l0 -5978.8 1267.51 0 0 5978.8 -1267.51 0zm6182.7 -5978.8l1279.35 0 -2031.97 5978.8 -1382.92 0 -2027.03 -5978.8 1279.35 0 1124.49 3557.41c63.13,210.69 127.25,455.02 194.32,734.07 67.07,280.54 108.5,474.56 125.27,583.36 29.6,-251.24 131.2,-689.39 305.78,-1317.43l1133.37 -3557.41zm5473.48 5978.8l-3442.51 0 0 -5978.8 3442.51 0 0 1038.37 -2175.98 0 0 1314.66 2024.07 0 0 1038.28 -2024.07 0 0 1540.74 2175.98 0 0 1046.75z"/> <path fill="red" d="M103597.73 75714.5c1469.72,-194.82 2818.11,838.62 3013.42,2308.15 194.32,1469.63 -838.43,2818.81 -2308.16,3013.52 -1469.72,194.71 -2819.1,-838.63 -3013.42,-2308.25 -195.31,-1469.53 838.43,-2818.71 2308.16,-3013.42z"/> </g> </svg>