<?xml version="1.0" encoding="utf-8"?>
<svg xmlns="http://www.w3.org/2000/svg" xmlns:xlink="http://www.w3.org/1999/xlink" version= "1.1" width="720px" height="1424px" viewBox="0 0 720 1424">
<g id="layer1">
<g style="fill:rgb(0,12,17); fill-opacity:1.0; stroke-linejoin: miter">
<path d="M590.64154,701.4841C585.1562,712.0131,579.9858,724.6269,576.8671,735.0965C575.529,739.57184,573.9939,745.3337,573.38403,748.1189C569.7416,764.6698,568.34155,778.1601,568.52246,794.7786C568.59607,801.05414,569.4042,811.44543,570.34784,818.21985C572.1361,831.0959,575.7998,845.9075,580.06354,857.59265C587.0908,876.8169,596.43164,893.99243,608.3755,909.65735C621.8433,927.3171,637.3609,941.7304,656.70514,954.5159C660.197,956.8195,671.748,963.4515,675.3715,965.2332C692.0037,973.3824,706.7756,978.4666,723.8306,981.9135C746.1443,986.43896,768.8703,986.9652,791.69653,983.4801C806.5213,981.2237,822.82605,976.68207,836.4773,971.00995C849.4376,965.62994,860.03705,959.94086,871.4945,952.2056C883.97125,943.7681,895.03674,934.2779,905.2206,923.2364C911.7767,916.13947,918.2834,907.89496,923.44135,900.14496L924.36176,898.7701L936.2636,905.60333L948.179,912.44403L946.10114,916.06573C944.51276,918.8304,943.9649,919.91473,943.7568,920.6353C942.8348,923.93146,943.6823,927.5903,945.9488,930.1419C946.8403,931.15765,946.882,931.1816,951.3914,933.8266C953.8879,935.2966,1008.06384,966.4932,1071.7762,1003.1841C1173.1841,1061.553,1187.7671,1069.9254,1188.7273,1070.2344C1190.0797,1070.6747,1192.376,1070.8359,1193.7255,1070.5657C1195.0083,1070.3132,1196.4954,1069.6744,1197.659,1068.8494C1199.5846,1067.5103,1199.1858,1068.1399,1210.255,1048.762L1220.3416,1031.096L1220.5171,1029.9462C1220.7759,1028.2288,1220.6957,1026.839,1220.2354,1025.2687C1219.7754,1023.6975,1219.2534,1022.6887,1218.1902,1021.3882L1217.4657,1020.5055L1194.9253,1007.4336C1182.5142,1000.25256,1128.0568,968.89514,1073.8842,937.7559L975.39124,881.1347L974.2799,880.9261C971.11743,880.3232,968.02405,881.15985,965.5329,883.25665C964.5961,884.0439,964.5092,884.1619,962.27545,887.955L959.9715,891.8388L958.7647,891.0152C958.08685,890.57025,952.7498,887.45013,946.9118,884.0987L936.3016,878.0068L937.56696,875.4116C939.0363,872.42993,940.6801,868.6897,942.58246,863.9779C943.8918,860.75507,944.2348,859.8325,945.8555,855.22095C950.4067,842.2893,953.7608,827.3455,955.31537,813.06683C955.70184,809.6307,956.2972,800.9221,956.3714,797.99774C956.4528,794.5736,956.45905,793.4575,956.4516,791.3259C956.2891,760.405,948.7918,729.8444,934.66,702.45404C929.0892,691.68005,922.384,681.22375,914.9079,671.6883C902.94696,656.4426,888.58014,642.9506,872.7304,632.0408C863.9645,626.0194,854.266,620.45135,844.79236,616.0198C810.1132,599.7487,771.24274,594.18994,733.2139,600.06836C710.13635,603.63293,687.7935,611.3136,667.6737,622.56604C651.12616,631.8199,637.1959,642.4648,623.5185,656.2774C620.4935,659.3367,615.77344,664.6324,612.5208,668.60626C610.3619,671.2294,609.3598,672.5199,606.16785,676.7149C601.9087,682.3131,594.3817,694.31946,590.64154,701.4841 Z M643.59186,710.7967C652.3055,698.0899,661.92474,687.76984,673.7787,678.43384C687.8042,667.3958,703.6408,659.1519,720.83997,653.9297C724.08514,652.9565,724.27026,652.89465,727.8732,652.0148C736.6017,649.87854,744.0991,648.7153,753.0293,648.11334C776.7892,646.5455,800.4381,650.92303,822.3402,660.97784C828.52094,663.7984,837.77014,668.9786,842.75745,672.38306C857.26404,682.3168,868.48553,693.0322,878.43506,706.4515C895.2644,729.17535,905.15485,757.19165,906.3301,785.5031C907.3609,809.9063,902.2076,833.93115,891.2518,855.8753C889.7361,858.9053,884.61755,867.85364,882.96674,870.33905C880.33026,874.31244,877.5927,878.1713,875.709,880.54144C875.17786,881.2067,874.27246,882.32916,873.71686,883.0367C866.4739,892.10895,855.83936,902.05194,845.71136,909.2254C839.7851,913.4366,834.22003,916.79144,827.4989,920.21C791.2682,938.69086,748.4271,940.76166,710.38446,925.86237C703.0116,922.9732,699.0773,921.0501,690.8527,916.3284C682.7827,911.6951,679.7032,909.64716,673.4184,904.7326C644.83795,882.38965,625.7838,849.82245,620.20233,813.812C617.91595,799.00775,617.9668,783.90295,620.3532,769.0194C622.5893,755.1134,627.1305,740.96326,633.30194,728.5887C634.0637,727.0668,634.8661,725.4745,635.0797,725.037C636.106,722.9577,641.9206,713.25183,643.59186,710.7967 Z"/>
</g>
<g style="fill:rgb(0,0,0); fill-opacity:1.0; stroke-linejoin: miter">
<path d="M190.21187,630.3404C179.30045,630.5939,175.62103,630.9109,173.40076,631.7992C171.87823,632.3702,168.57944,633.1314,166.10524,633.51184C163.69463,633.8291,160.07857,634.59064,158.17543,635.0979C150.05545,637.44543,140.03221,640.744,138.82669,641.4418C138.12907,641.88574,135.71843,642.96454,133.49812,643.9161C131.27773,644.804,128.74019,646.0728,127.7887,646.7073C126.90042,647.3413,123.664986,649.4986,120.683464,651.4651C107.741875,659.8392,95.30822,674.9371,90.29655,688.3227C89.5353,690.41595,88.52026,693.0173,88.01274,694.0955C87.56877,695.23755,86.99776,697.20355,86.743835,698.5363C86.553604,699.9313,85.79234,702.9768,85.15784,705.45087C83.57208,711.6675,82.49356,730.3186,83.31831,738.8833C84.39659,749.92114,85.09459,754.9962,86.10962,757.53326C86.617096,758.9293,87.759,762.4819,88.647,765.4633C91.05778,773.52014,99.93916,787.6033,105.77538,792.6146C106.40989,793.18585,108.56664,795.0257,110.533165,796.6752C117.25763,802.5112,130.13568,810.187,137.87518,812.978C140.15894,813.8034,142.56947,814.8184,143.26764,815.2621C143.96552,815.7058,145.67828,816.34106,147.07367,816.7216C148.46944,817.03876,151.64148,817.9901,154.05173,818.7514C163.69466,821.7333,191.7977,828.267,201.63075,829.8532C203.0265,830.0435,206.00804,830.7412,208.29172,831.3754C210.57547,832.07355,215.58719,833.15216,219.39359,833.9131C223.26314,834.6746,227.5136,835.81604,228.90923,836.45056C230.30501,837.1487,232.90575,837.9731,234.61867,838.35406C238.93237,839.3053,248.63861,844.0636,251.87376,846.8547C255.55333,850.0901,258.59824,854.4039,260.6918,859.60547C262.3414,863.666,262.5317,864.74426,262.5317,871.6588C262.5317,878.5736,262.3414,879.65216,260.6918,883.83936C256.06082,895.3214,245.72061,903.1876,230.49525,906.8667C229.29,907.1205,225.42006,907.88196,221.93114,908.57983C210.57549,910.67346,182.02824,909.9125,168.64273,907.1843C166.23233,906.74036,162.93326,906.1057,161.34766,905.9155C159.76137,905.66174,156.65291,904.964,154.36931,904.32983C152.08537,903.63196,147.7082,902.4901,144.53625,901.7285C141.42784,900.9673,137.49466,899.635,135.84517,898.8104C134.19586,898.0493,132.41948,897.3513,131.9756,897.3513C130.5797,897.3513,121.38145,894.3062,120.42957,893.54474C119.985405,893.2277,117.82878,892.3398,115.60849,891.5787C111.42156,890.24615,110.533165,889.8658,97.46497,883.71173C92.58043,881.36505,89.344925,880.22296,88.64702,880.47687C87.63199,880.85736,87.56879,881.9355,87.949265,895.63824C88.203,903.7583,88.39328,918.09546,88.39328,927.6111C88.39329,947.46765,88.13952,946.64294,94.73721,948.48254C96.64025,948.9895,99.24142,949.87805,100.44668,950.3218C101.651955,950.8292,103.80887,951.5271,105.20462,951.9081C106.60013,952.22485,109.89907,953.1138,112.499855,953.875C115.10103,954.5726,118.97043,955.5881,121.06423,956.09564C123.15746,956.6031,126.71002,957.55426,128.99393,958.25214C131.27773,958.94977,134.95714,959.8383,137.24094,960.15497C139.52473,960.5356,142.50624,961.1069,143.90205,961.4235C145.29756,961.7409,147.45445,962.05804,148.65984,962.05804C149.86525,962.05804,152.91026,962.81964,155.32079,963.6442C158.55608,964.7861,161.09387,965.2304,164.6463,965.2304C167.31085,965.2304,173.02016,965.67413,177.33394,966.2453C183.93166,967.13324,189.5776,967.2603,213.36691,966.94305C238.552,966.6259,242.16782,966.4356,246.67188,965.35736C249.46344,964.6591,253.4601,963.89825,255.55336,963.70795C257.64703,963.4537,260.94556,962.81976,262.8487,962.2485C264.75183,961.6778,267.924,960.8536,269.82693,960.409C279.78677,958.0618,294.3776,951.591,303.76657,945.247C309.9835,941.1237,319.9434,931.16394,324.25705,924.69324C330.03003,916.12915,336.43732,901.72864,336.43732,897.2882C336.43732,896.4635,337.13525,894.4967,337.89624,892.91064C338.72083,891.3248,339.7995,888.7239,340.24347,887.0111C341.195,883.39514,341.95624,882.7606,342.71753,884.8546C343.0349,885.74243,343.54242,902.4901,343.79614,922.0924C344.17664,950.6397,344.4303,957.8715,345.1283,958.5694C345.7627,959.267,349.75928,959.3941,365.80923,959.1401C376.65707,959.0131,406.156,958.5694,431.2775,958.25226C456.39886,957.8715,485.0731,957.49054,495.033,957.30023C504.99298,957.11066,526.6887,956.7928,543.30945,956.6032C559.93024,956.3493,573.88666,955.9683,574.3307,955.7148C574.96533,955.3343,574.96533,949.1807,574.45776,926.27936C574.07684,910.3563,573.5694,897.03455,573.3156,896.6538C572.93524,896.01953,557.583,896.08276,508.672,897.03455C499.98126,897.2246,478.28525,897.5421,460.45917,897.7322C428.16898,898.1128,428.1055,898.1128,426.39273,896.781C425.31424,895.89233,424.6163,894.6238,424.36264,893.0377C424.17233,891.7689,423.9821,875.0848,423.85507,855.98975L423.6649,821.2892L425.12387,819.8301L426.58304,818.37115L472.06827,817.8636C497.06305,817.60974,526.8157,817.16565,538.1711,816.9118L558.78845,816.4675L558.9787,787.35C559.1056,765.21014,558.915,758.0411,558.34424,757.3432C557.7097,756.519,555.8703,756.45526,547.05225,756.7725C541.2792,756.9628,519.7738,757.2799,499.1563,757.4701C478.6022,757.6604,454.05188,757.97766,444.59955,758.16797C426.83673,758.54834,424.67975,758.35803,423.41107,756.0114C422.52295,754.3618,422.14227,743.95795,422.01556,717.8851L421.8886,696.0623L423.60138,694.5398C425.1875,693.20807,425.88525,693.08105,433.05377,693.08105C437.30408,693.0811,446.6294,692.8905,453.7982,692.7635C460.96664,692.5733,488.7524,692.1291,515.6505,691.8119C555.1091,691.30426,564.62445,690.9873,565.32263,690.2898C566.0204,689.59155,566.08386,684.39,565.7031,660.4738C565.32263,634.7813,565.1321,631.41895,564.2441,631.03845C563.6729,630.7848,554.22046,630.721,543.246,630.975C532.2712,631.16534,496.5556,631.73615,463.94815,632.1166C344.81113,633.5758,341.639,633.7025,340.624,634.7173C339.86288,635.5423,339.7994,640.4903,340.24338,670.8774C340.8146,708.55963,342.27365,815.8968,342.33713,826.9351C342.4639,837.3388,341.13162,841.4626,339.5457,835.62604C339.165,834.16693,338.34042,832.39075,337.70584,831.69293C337.00815,830.99524,335.6759,827.8231,334.59753,824.7144C328.95135,807.3962,316.45416,794.0106,296.15393,783.6066C292.3476,781.64014,287.20923,779.2928,284.73505,778.34155C282.32452,777.4533,279.91373,776.43823,279.4697,776.0577C279.02542,775.67694,277.12228,774.9791,275.21927,774.47156C273.3163,774.0274,270.20758,773.2664,268.36798,772.75903C266.5282,772.31476,264.1809,771.4897,263.1659,770.9821C262.0874,770.4117,259.42322,769.65045,257.13947,769.26935C248.6386,767.87396,242.35815,766.6686,239.18634,765.78064C237.34644,765.2731,234.17465,764.6387,232.08127,764.44824C229.98756,764.1947,226.6888,763.6235,224.78575,763.17975C222.88277,762.7355,220.02771,762.16473,218.44208,761.97455C213.36688,761.2761,194.27205,757.1526,187.03992,755.1864C182.85312,754.0444,179.04669,752.5219,171.81487,749.2231C167.56456,747.2564,161.66461,741.8008,159.76135,738.1218C158.9367,736.4723,157.85846,732.7295,157.35095,729.8112C156.58969,725.30664,156.58969,723.5939,157.2239,718.77313C158.17545,712.0485,159.31732,709.12994,162.61624,704.7532C168.5161,696.8869,180.56921,691.304,195.60417,689.4648C216.03117,686.9906,221.74065,686.8004,230.81248,688.3228C233.9844,688.8303,238.55194,689.2746,240.96265,689.2746C243.43665,689.2746,247.11609,689.5914,249.20961,689.9721C251.30302,690.2896,255.48979,690.98706,258.47162,691.4947C261.51648,691.93866,264.56152,692.6364,265.32294,693.01746C266.0207,693.4609,268.68512,694.15924,271.22266,694.60345C277.5665,695.8087,290.88864,699.6148,298.0571,702.3426C300.53116,703.23065,303.95682,704.49994,305.66974,705.13446C307.44604,705.76843,310.49103,706.9737,312.4577,707.86224C315.94678,709.3845,316.13702,709.448,316.708,708.3695C317.0885,707.67145,317.21548,695.6183,316.96158,676.3333C316.6445,649.37177,316.4542,645.2483,315.56595,644.17C314.8682,643.28174,313.2189,642.7745,309.98352,642.3935C307.50946,642.0768,305.09882,641.63245,304.71808,641.3787C304.33752,641.1247,301.9903,640.68097,299.5796,640.36365C297.16882,640.0464,294.44095,639.4122,293.48965,638.90466C292.47458,638.3969,290.0004,637.8262,287.9069,637.6357C285.81332,637.38214,281.6899,636.8111,278.70853,636.3036C245.91052,630.7845,225.4835,629.38873,190.21187,630.3404 Z"/>
</g>
<g style="fill:rgb(0,0,0); fill-opacity:1.0; stroke-linejoin: miter">
<path d="M1031.1229,507.89832C1026.2063,507.89832,1005.74255,516.37866,937.5181,545.70984C886.0723,567.89087,844.8788,586.53076,846.1834,587.0896C847.48816,587.64886,866.8733,590.6311,889.4274,593.42725C911.9816,596.22327,930.62115,598.83276,930.99396,599.0195C931.3018,599.3273,920.0756,621.7984,902.11084,656.9975C894.8729,671.17896,886.5413,687.4266,877.4294,705.1232C877.43335,705.12836,877.4373,705.1334,877.4413,705.13855L877.4314,705.13965C868.0876,723.2661,857.93506,742.9139,847.3012,763.41876L830.71216,795.29144L756.7136,744.5923L682.9016,693.8928L664.8216,715.3282C649.77435,733.4586,634.2375,752.3439,620.28345,769.4122C620.2829,769.4159,620.2823,769.4197,620.28174,769.4234L620.2744,769.4245C594.4944,800.957,574.1189,826.28625,572.2181,829.1901L572.218,829.1912C572.0977,829.37396,572.05145,829.4679,572.08246,829.4679C572.0978,829.4679,572.13196,829.445,572.18536,829.39874C572.20715,829.38245,572.2288,829.3663,572.25024,829.3502C572.2501,829.34875,572.25006,829.3473,572.2499,829.3458L572.2562,829.3469C573.0083,828.7855,573.57855,828.42566,574.0107,828.42566C575.2533,828.42566,575.3541,831.4008,575.3542,841.1412L575.3542,842.5593C576.78174,847.851,578.3756,852.9668,580.06354,857.59265C580.8483,859.73956,581.662,861.86096,582.5049,863.9575L619.156,821.1978C619.8017,820.44574,620.4453,819.69617,621.08685,818.9494C621.0864,818.9471,621.08594,818.9447,621.0855,818.9424L621.0929,818.9435C654.15125,780.4567,681.42847,749.2512,682.3425,749.2512C682.3521,749.2493,682.3626,749.24835,682.374,749.24835C683.4808,749.24835,693.4563,758.12646,704.70996,769.1955C798.0148,859.7614,835.33325,895.0568,838.0431,895.0568C838.09955,895.0568,838.141,895.04144,838.16754,895.01105C839.31976,893.8588,863.62,851.1972,905.6512,776.4843C905.65063,776.47925,905.6501,776.4742,905.64954,776.4691L905.65967,776.4702C916.1611,757.80225,927.7692,737.1349,940.3995,714.61444C940.398,714.6109,940.39655,714.6074,940.3951,714.6039L940.40546,714.60504C942.64166,710.6167,944.90985,706.5714,947.20966,702.4689C966.40894,668.1724,983.18494,638.9084,984.30334,637.6035C984.458,637.4489,984.65063,637.3671,984.88904,637.3671C987.2355,637.3671,994.0049,645.29706,1012.44885,669.6638C1026.6295,688.26465,1038.445,703.40796,1039.0851,703.40796C1039.0929,703.40796,1039.0991,703.4057,1039.1035,703.4013C1040.0356,702.65594,1033.5138,511.22662,1032.3955,508.4306C1032.2494,508.08972,1031.8616,507.89832,1031.1229,507.89832 Z"/>
</g>
</g>
</svg>